<?xml version="1.0" standalone="no"?>
<!DOCTYPE svg PUBLIC "-//W3C//DTD SVG 20010904//EN"
 "http://www.w3.org/TR/2001/REC-SVG-20010904/DTD/svg10.dtd">
<svg version="1.0" xmlns="http://www.w3.org/2000/svg"
 width="799.000000pt" height="446.000000pt" viewBox="0 0 799.000000 446.000000"
 preserveAspectRatio="xMidYMid meet">
<metadata>
Created by potrace 1.16, written by Peter Selinger 2001-2019
</metadata>
<g transform="translate(0.000000,446.000000) scale(0.100000,-0.100000)"
fill="#000000" stroke="none">
<path d="M4950 3740 l0 -500 23 -8 c27 -10 2486 -16 2615 -6 l92 6 0 504 0
504 -1365 0 -1365 0 0 -500z m2710 -5 l0 -485 -1340 0 -1340 0 0 485 0 485
1340 0 1340 0 0 -485z"/>
<path d="M5020 3735 l0 -445 1295 0 1295 0 5 23 c3 12 4 211 3 442 l-3 420
-1297 3 -1298 2 0 -445z m2570 0 l0 -425 -1275 0 -1275 0 0 425 0 425 1275 0
1275 0 0 -425z"/>
<path d="M5910 3860 c0 -47 4 -80 10 -80 6 0 10 33 10 80 0 47 -4 80 -10 80
-6 0 -10 -33 -10 -80z"/>
<path d="M5966 3933 c-3 -3 -6 -39 -6 -80 0 -58 3 -73 15 -73 9 0 15 9 15 23
l1 22 18 -22 c11 -13 27 -23 36 -23 14 0 13 4 -5 31 -20 28 -21 31 -6 48 20
22 20 31 2 31 -7 0 -21 -10 -29 -22 -16 -23 -16 -22 -16 19 -1 40 -11 60 -25
46z"/>
<path d="M6457 3933 c-4 -3 -7 -39 -7 -80 0 -57 3 -73 14 -73 10 0 16 14 18
43 2 29 8 42 18 42 10 0 16 -13 18 -42 2 -29 8 -43 18 -43 10 0 14 12 14 44 0
48 -18 71 -50 63 -17 -4 -20 0 -20 24 0 28 -9 37 -23 22z"/>
<path d="M5670 3915 c0 -8 9 -15 20 -15 18 0 20 -7 20 -60 0 -47 3 -60 15 -60
12 0 15 13 15 59 0 54 2 60 23 63 44 6 21 23 -35 26 -47 2 -58 0 -58 -13z"/>
<path d="M6133 3918 c2 -7 7 -13 12 -13 5 0 10 6 13 13 2 6 -4 12 -13 12 -9 0
-15 -6 -12 -12z"/>
<path d="M5799 3874 c-11 -13 -9 -15 16 -12 15 2 30 -2 32 -9 2 -7 -8 -13 -24
-15 -22 -2 -29 -9 -31 -29 -4 -31 10 -38 56 -32 30 5 32 8 32 47 0 23 -5 47
-12 54 -17 17 -53 15 -69 -4z m51 -59 c0 -8 -7 -15 -15 -15 -16 0 -20 12 -8
23 11 12 23 8 23 -8z"/>
<path d="M6130 3836 c0 -44 3 -56 16 -56 12 0 14 10 12 52 -4 74 -28 77 -28 4z"/>
<path d="M6190 3875 c-17 -20 -6 -43 25 -51 14 -3 24 -11 22 -18 -5 -12 -11
-12 -39 -1 -26 10 -22 -12 3 -26 16 -8 28 -8 45 0 34 15 31 47 -6 60 -16 5
-30 15 -30 20 0 14 27 14 35 1 4 -6 11 -8 16 -4 16 9 -10 34 -36 34 -12 0 -28
-7 -35 -15z"/>
<path d="M6356 3874 c-41 -41 4 -121 53 -94 31 16 25 30 -9 24 -28 -6 -30 -5
-30 24 0 34 16 50 33 33 15 -15 27 -14 27 3 0 27 -50 34 -74 10z"/>
<path d="M6586 3874 c-9 -8 -16 -29 -16 -44 0 -35 38 -65 70 -55 30 10 24 25
-10 25 -16 0 -30 5 -30 10 0 6 16 10 35 10 27 0 35 4 35 18 0 22 -30 52 -53
52 -8 0 -23 -7 -31 -16z m52 -22 c2 -7 -6 -12 -17 -12 -21 0 -27 11 -14 24 9
9 26 2 31 -12z"/>
<path d="M6703 3883 c-22 -8 -14 -24 10 -21 28 4 39 -15 12 -20 -73 -14 -51
-76 23 -65 29 5 32 9 32 40 0 61 -29 86 -77 66z m47 -68 c0 -8 -9 -15 -20 -15
-20 0 -26 11 -13 23 12 13 33 7 33 -8z"/>
<path d="M6800 3809 c0 -64 3 -79 15 -79 9 0 15 10 15 26 0 20 4 24 19 19 39
-12 66 49 41 95 -7 14 -21 19 -50 18 l-40 0 0 -79z m68 23 c3 -27 0 -32 -17
-32 -16 0 -21 6 -21 28 0 53 33 56 38 4z"/>
<path d="M6926 3803 c-11 -11 -6 -23 9 -23 8 0 15 4 15 9 0 13 -16 22 -24 14z"/>
<path d="M5453 3680 c-40 -16 -30 -56 18 -81 38 -19 40 -22 26 -37 -15 -14
-18 -14 -35 1 -20 19 -42 22 -42 8 0 -15 42 -41 65 -41 28 0 45 18 45 47 0 17
-10 28 -35 40 -19 9 -35 23 -35 30 0 15 36 18 45 3 9 -15 25 -12 25 5 0 12
-41 38 -53 34 -1 0 -12 -4 -24 -9z"/>
<path d="M5554 3665 c-8 -33 5 -135 17 -135 5 0 9 20 9 45 0 38 3 45 20 45 17
0 20 -7 20 -45 0 -33 4 -45 15 -45 11 0 15 12 15 49 0 54 -17 77 -50 66 -17
-5 -20 -2 -20 19 0 33 -18 34 -26 1z"/>
<path d="M6420 3610 c0 -64 3 -80 15 -80 11 0 15 12 15 45 0 38 3 45 20 45 17
0 20 -7 20 -46 0 -32 4 -44 13 -41 7 2 12 22 11 51 0 50 -16 70 -46 60 -14 -4
-18 0 -18 20 0 16 -6 26 -15 26 -12 0 -15 -16 -15 -80z"/>
<path d="M7000 3666 c0 -19 -4 -23 -19 -19 -12 3 -24 -3 -35 -18 -34 -49 -9
-97 52 -96 l32 0 0 79 c0 63 -3 78 -15 78 -9 0 -15 -9 -15 -24z m0 -74 c0 -34
-7 -43 -26 -35 -14 5 -19 44 -7 56 16 16 33 5 33 -21z"/>
<path d="M6353 3650 c-8 -12 -9 -21 -3 -25 6 -3 10 -24 10 -46 0 -40 17 -58
41 -44 8 6 7 10 -5 17 -17 10 -22 63 -6 73 9 6 -8 45 -20 45 -3 0 -11 -9 -17
-20z"/>
<path d="M5687 3632 c-40 -44 -2 -115 51 -96 22 7 28 16 30 45 5 60 -45 91
-81 51z m57 -28 c8 -20 -12 -56 -27 -51 -7 2 -13 18 -15 35 -3 26 0 32 16 32
11 0 23 -7 26 -16z"/>
<path d="M5790 3636 c0 -32 22 -106 32 -106 5 0 15 14 21 30 6 17 14 30 18 30
4 0 9 -13 13 -30 10 -54 33 -33 51 48 5 25 3 32 -9 32 -10 0 -16 -9 -16 -25 0
-14 -4 -25 -9 -25 -5 0 -12 11 -15 25 -9 34 -23 31 -40 -7 -14 -32 -14 -32
-15 -7 -1 30 -31 64 -31 35z"/>
<path d="M6003 3634 c-8 -23 2 -98 15 -102 8 -2 12 10 12 42 0 39 3 46 20 46
17 0 20 -7 20 -46 0 -59 24 -55 28 4 2 28 8 42 17 42 9 0 15 -14 17 -42 5 -62
28 -62 28 1 0 29 -5 53 -12 58 -20 12 -140 10 -145 -3z"/>
<path d="M6200 3630 c-41 -41 -9 -109 45 -96 14 4 25 11 25 17 0 6 -7 9 -15 5
-18 -6 -45 2 -45 15 0 5 16 9 35 9 27 0 35 4 35 18 0 21 -29 52 -48 52 -7 0
-21 -9 -32 -20z m50 -20 c0 -5 -9 -10 -20 -10 -11 0 -20 5 -20 10 0 6 9 10 20
10 11 0 20 -4 20 -10z"/>
<path d="M6556 3634 c-9 -8 -16 -31 -16 -49 0 -40 27 -60 66 -51 27 7 33 28 7
25 -30 -3 -43 1 -43 11 0 6 16 10 35 10 39 0 44 13 19 48 -18 26 -46 28 -68 6z
m54 -24 c0 -5 -9 -10 -20 -10 -11 0 -20 5 -20 10 0 6 9 10 20 10 11 0 20 -4
20 -10z"/>
<path d="M6720 3630 c-25 -25 -25 -51 -2 -80 14 -18 25 -21 44 -17 28 7 47 37
23 37 -7 0 -16 -4 -20 -10 -10 -17 -35 1 -35 26 0 28 24 42 44 25 21 -17 30 4
10 23 -21 21 -40 20 -64 -4z"/>
<path d="M6830 3630 c-24 -24 -25 -48 -4 -78 20 -29 59 -29 79 2 19 29 11 72
-15 86 -27 14 -38 12 -60 -10z m58 -33 c5 -27 -17 -50 -34 -36 -15 12 -19 41
-7 53 12 12 38 1 41 -17z"/>
<path d="M7070 3630 c-25 -25 -26 -62 -1 -84 22 -20 62 -18 69 3 3 10 0 12
-12 8 -19 -7 -46 1 -46 14 0 5 16 9 35 9 28 0 35 4 35 19 0 23 -25 51 -46 51
-8 0 -23 -9 -34 -20z m50 -20 c0 -5 -9 -10 -21 -10 -11 0 -17 5 -14 10 3 6 13
10 21 10 8 0 14 -4 14 -10z"/>
<path d="M7172 3548 c6 -18 28 -21 28 -4 0 9 -7 16 -16 16 -9 0 -14 -5 -12
-12z"/>
<path d="M4399 3530 c-39 -52 -112 -63 -223 -34 -161 43 -309 2 -373 -104
l-23 -37 0 43 c0 29 7 54 21 74 25 34 18 49 -11 23 -25 -22 -44 -79 -36 -109
6 -23 5 -23 -33 -10 -46 15 -111 8 -111 -13 0 -11 8 -12 35 -7 19 3 47 3 61 0
26 -7 25 -8 -27 -39 -106 -63 -153 -186 -132 -347 9 -74 9 -75 -17 -102 -49
-48 -47 -141 3 -231 26 -47 59 -69 103 -69 29 0 34 -3 34 -23 0 -49 -26 -55
-257 -55 l-213 0 0 406 c0 260 -4 412 -10 425 -10 18 -23 19 -180 19 -157 0
-170 -1 -180 -19 -6 -13 -10 -180 -10 -473 0 -275 -4 -459 -10 -468 -6 -10
-10 150 -10 462 0 462 -1 478 -19 488 -29 15 -334 13 -349 -2 -9 -9 -12 -154
-12 -590 0 -507 -2 -578 -15 -578 -13 0 -15 71 -15 578 0 436 -3 581 -12 590
-8 8 -60 12 -169 12 -130 0 -160 -3 -173 -16 -14 -14 -16 -81 -16 -590 0 -474
-2 -574 -13 -574 -11 0 -14 103 -16 582 -2 437 -5 584 -14 590 -21 13 -331 10
-345 -4 -9 -9 -12 -154 -12 -590 0 -456 -3 -578 -12 -578 -10 0 -12 120 -10
574 2 513 1 576 -14 590 -13 13 -43 16 -174 16 -131 0 -161 -3 -174 -16 -15
-14 -16 -77 -14 -590 2 -454 0 -574 -9 -574 -10 0 -13 123 -13 580 0 562 -1
580 -19 590 -29 15 -344 13 -359 -2 -9 -9 -12 -154 -12 -590 0 -507 -2 -578
-15 -578 -13 0 -15 72 -15 584 0 523 -2 584 -16 590 -31 12 -339 7 -352 -6 -9
-9 -12 -154 -12 -590 l0 -578 -65 0 -66 0 3 -77 3 -78 1223 -3 1222 -2 0 -115
0 -115 -63 -98 c-86 -133 -190 -300 -213 -342 -15 -28 -19 -56 -19 -137 l0
-103 -57 0 -58 0 0 99 c0 95 -1 100 -26 120 -80 63 -347 67 -437 7 -26 -18
-33 -29 -35 -64 -3 -39 -5 -42 -31 -42 -39 0 -93 -39 -114 -83 -18 -36 -20
-37 -73 -37 l-54 0 0 130 0 130 -30 0 -30 0 0 75 0 75 -269 0 -269 0 -91 -57
-91 -56 0 -49 0 -48 -105 0 c-118 0 -112 5 -117 -95 -3 -45 -6 -51 -43 -77
l-40 -27 -227 -1 c-196 0 -228 -2 -228 -15 0 -13 29 -15 200 -15 l200 0 0
-180 0 -180 279 0 278 0 68 55 67 55 119 0 120 0 104 83 c102 81 104 83 104
125 l1 42 53 0 c53 0 54 0 49 -29 -2 -16 3 -54 12 -84 20 -67 65 -115 118
-123 36 -6 38 -8 38 -45 0 -26 7 -44 22 -58 79 -74 377 -74 456 0 21 19 22 29
22 179 l0 160 72 0 c69 0 74 -1 109 -36 31 -30 73 -48 308 -130 336 -117 353
-121 389 -108 18 7 37 7 52 2 15 -6 34 -5 51 2 22 9 33 8 60 -5 18 -10 60 -18
93 -20 39 -1 76 -10 103 -23 49 -26 82 -28 109 -7 10 8 33 15 50 15 17 0 37 7
44 15 9 11 17 12 30 5 31 -16 49 -11 68 18 12 19 25 27 46 27 64 0 57 68 -19
180 l-45 65 572 0 571 0 66 -27 c93 -39 195 -39 268 0 52 27 54 27 254 27 111
0 199 -3 195 -7 -4 -4 -55 -23 -113 -43 -59 -19 -108 -40 -110 -46 -4 -12 158
-130 357 -259 l134 -87 -64 -62 c-36 -33 -86 -78 -112 -99 l-47 -38 -106 73
-106 73 -137 -49 c-75 -26 -208 -71 -294 -100 -87 -28 -158 -56 -158 -62 0
-30 386 -358 414 -352 10 2 -35 43 -112 104 -152 122 -274 233 -267 244 3 5
20 12 38 15 17 4 140 45 271 92 l239 85 99 -67 c66 -45 97 -72 94 -82 -4 -8 5
-18 22 -25 87 -35 145 -69 286 -167 l157 -109 -43 -25 c-24 -14 -61 -34 -83
-46 -35 -18 -37 -20 -15 -20 27 -1 161 68 167 86 2 5 -37 39 -88 74 -179 126
-214 151 -194 145 157 -54 289 -89 339 -90 l58 -1 37 -104 c21 -58 43 -107 51
-109 9 -3 11 1 6 14 -5 11 -23 63 -42 117 -30 88 -31 99 -16 103 58 19 118 47
159 76 27 18 52 31 57 30 17 -6 291 40 301 50 7 7 3 8 -10 5 -11 -3 -72 -13
-135 -22 -63 -9 -123 -18 -132 -20 -11 -2 2 19 34 55 50 57 53 59 114 65 67 8
139 -11 167 -44 8 -9 67 -109 131 -224 65 -114 119 -207 121 -207 1 0 54 18
118 39 l116 39 96 -39 c53 -21 107 -39 118 -38 27 0 50 -10 -223 105 -113 48
-207 88 -209 90 -2 2 81 90 185 196 104 106 211 219 238 251 28 31 55 57 60
57 6 0 67 -20 135 -45 114 -41 150 -48 125 -26 -5 4 -31 16 -59 26 -67 24 -72
30 -35 45 25 11 36 10 58 -1 15 -7 30 -15 35 -17 4 -2 7 1 7 7 0 7 -34 33 -75
59 -41 26 -75 50 -75 54 0 4 34 37 75 75 41 37 75 74 75 82 0 10 -10 5 -30
-14 -24 -23 -32 -26 -45 -15 -26 21 -17 39 30 62 25 12 45 28 45 36 0 9 -18 3
-57 -19 l-56 -32 -88 94 c-48 52 -86 95 -86 95 1 1 61 -18 132 -42 137 -45
155 -49 155 -36 0 11 -279 96 -287 88 -4 -4 -21 7 -38 24 l-31 30 -74 -25
c-40 -14 -76 -25 -78 -25 -3 0 34 24 82 53 48 28 88 57 89 62 1 6 -69 33 -157
62 -87 28 -163 56 -168 61 -5 5 20 34 62 72 l71 63 261 -62 c144 -34 264 -59
266 -56 3 3 1 9 -4 14 -9 8 -442 111 -501 119 -29 4 -42 -4 -112 -66 l-80 -70
-152 58 -153 58 -46 -19 c-141 -58 -363 -146 -408 -162 -29 -10 -52 -24 -52
-31 0 -8 23 -22 50 -32 28 -10 47 -21 43 -24 -5 -4 -36 -15 -70 -24 -67 -18
-120 -13 -374 33 -115 21 -112 23 -124 -66 l-7 -53 -73 -40 -72 -40 -236 0
-236 0 26 46 c14 26 29 71 33 107 8 69 -9 231 -35 314 -26 88 -334 826 -347
835 -7 4 -21 8 -31 8 -11 0 -27 19 -44 55 -21 42 -32 55 -52 57 -22 3 -28 12
-47 78 -12 41 -36 132 -52 201 -33 142 -71 212 -157 287 -34 30 -49 53 -61 92
-11 37 -31 69 -64 104 -47 50 -48 52 -33 79 21 42 12 57 -33 50 -34 -6 -36 -5
-25 15 15 29 14 78 -4 112 -19 38 -29 37 -56 0z m-270 -234 c32 -29 75 -59 96
-66 53 -17 139 -8 176 19 34 25 40 23 80 -31 36 -50 36 -56 2 -60 -17 -2 -32
-12 -38 -25 -7 -17 -18 -23 -41 -23 -37 0 -57 -20 -53 -52 2 -13 0 -29 -4 -35
-11 -18 -125 -17 -177 2 -47 17 -146 20 -155 5 -3 -5 13 -7 44 -3 33 4 65 0
97 -11 26 -9 78 -16 116 -16 61 0 68 -2 68 -20 0 -11 12 -27 26 -36 22 -15 23
-19 10 -26 -9 -5 -16 -19 -16 -30 0 -17 -3 -19 -12 -10 -19 19 -48 15 -48 -7
0 -28 66 -79 124 -96 50 -15 71 -12 59 8 -4 7 0 6 10 -2 19 -15 23 -56 7 -66
-5 -3 -10 -2 -10 4 0 6 -19 20 -42 32 -33 17 -54 20 -106 17 -56 -4 -68 -8
-89 -33 l-25 -28 3 34 c2 19 -1 36 -6 39 -6 3 -11 -11 -13 -31 -3 -35 -4 -36
-45 -35 -37 1 -43 4 -53 31 -32 89 -207 124 -276 55 l-29 -29 -34 20 c-32 19
-35 25 -35 68 0 34 6 55 21 72 46 53 52 75 35 142 -12 46 -13 71 -6 97 26 94
136 179 233 180 43 0 52 -4 106 -54z m-3371 -558 l2 -568 -118 0 c-66 0 -140
-3 -166 -6 l-46 -7 0 577 0 576 163 -2 162 -3 3 -567z m410 0 l-3 -573 -160 0
-160 0 -3 573 -2 572 165 0 165 0 -2 -572z m400 0 l-3 -571 -155 1 -155 1 -3
570 -2 571 160 0 160 0 -2 -572z m395 490 c9 -147 9 -1058 1 -1058 -5 0 -76
-1 -159 -3 l-150 -2 -3 573 -2 572 154 0 154 0 5 -82z m397 25 c1 -32 1 -289
2 -572 l1 -513 -154 -1 -154 -1 -3 572 -2 572 155 0 155 0 0 -57z m410 -425
l0 -483 -25 -60 c-13 -33 -25 -73 -25 -90 l0 -30 -122 2 c-68 1 -129 3 -135 3
-10 0 -13 121 -13 570 l0 570 160 0 160 0 0 -482z m400 73 l0 -408 -31 -7
c-17 -3 -64 -6 -104 -6 -59 0 -82 -5 -129 -28 l-56 -29 0 444 0 443 160 0 160
0 0 -409z m1408 207 c40 -15 71 -36 105 -72 72 -77 93 -122 127 -262 39 -164
69 -264 86 -289 8 -11 14 -23 14 -27 0 -12 -102 -75 -132 -82 -22 -5 -28 -2
-36 23 -6 16 -29 44 -52 62 -53 42 -65 66 -90 174 -11 48 -26 98 -33 111 -14
26 -102 94 -122 94 -16 0 -65 39 -65 51 0 17 75 9 125 -15 28 -12 65 -35 83
-51 18 -15 36 -25 39 -21 18 17 -99 100 -177 125 -46 15 -95 54 -86 69 19 32
155 -13 242 -79 73 -55 96 -58 45 -5 -41 43 -109 79 -186 101 -69 20 -106 48
-87 67 9 9 25 8 69 -1 92 -20 161 -56 216 -113 35 -36 52 -48 55 -38 3 8 -20
37 -54 69 -45 42 -76 62 -127 80 -70 24 -83 34 -71 52 7 12 31 7 112 -23z
m-939 -262 c16 -17 25 -43 31 -91 9 -76 21 -95 48 -79 11 7 18 27 20 58 l3 47
28 -20 c22 -16 29 -31 34 -67 9 -81 70 -134 154 -134 77 0 146 44 158 101 6
25 11 29 40 29 19 0 36 -4 39 -9 3 -4 6 -54 8 -109 2 -135 -14 -156 -85 -107
-41 27 -58 19 -24 -12 37 -34 58 -42 87 -31 34 11 50 45 50 105 l0 47 28 -27
c15 -14 48 -31 74 -38 39 -11 52 -10 86 3 l40 16 -8 -27 c-54 -176 -153 -315
-260 -364 -64 -30 -150 -29 -214 2 -60 29 -179 139 -211 195 -32 56 -65 169
-65 221 0 52 -7 58 -48 43 -25 -10 -34 -9 -56 5 -39 26 -76 107 -76 165 0 90
67 134 119 78z m397 -55 c100 -45 71 -181 -43 -205 -119 -26 -212 104 -137
193 23 28 31 31 82 31 34 0 74 -8 98 -19z m369 -52 c56 -15 85 -45 85 -86 0
-41 -22 -86 -52 -107 -28 -20 -100 -21 -137 -2 -87 46 -78 180 14 199 36 8 50
7 90 -4z m126 -166 c-22 -44 -51 -74 -51 -53 0 7 15 45 33 85 30 69 32 71 35
40 2 -19 -5 -50 -17 -72z m123 -112 l47 -48 -17 -30 c-17 -29 -17 -32 3 -86
19 -48 20 -57 7 -68 -11 -9 -23 -8 -55 7 -32 14 -46 28 -60 61 -10 24 -42 68
-70 98 l-51 54 45 44 c24 24 50 60 58 80 l13 36 17 -51 c10 -31 34 -67 63 -97z
m-974 18 c0 -24 -23 -50 -61 -70 -23 -11 -44 -18 -47 -15 -6 7 86 96 99 96 5
0 9 -5 9 -11z m1300 -75 c16 -37 30 -73 30 -80 0 -30 -178 -134 -231 -134 -22
0 -28 8 -50 67 -13 37 -25 70 -27 74 -1 3 16 9 38 12 56 7 146 54 178 93 15
18 28 33 29 33 2 1 16 -29 33 -65z m-1244 -113 c19 -93 51 -153 125 -237 60
-68 108 -169 89 -188 -13 -13 -21 -4 -55 62 -27 51 -28 52 -47 35 -11 -10 -36
-44 -56 -76 -35 -57 -36 -58 -48 -35 -30 58 -83 232 -89 294 -7 73 8 218 27
260 l12 25 13 -33 c7 -17 21 -66 29 -107z m-208 87 c-14 -21 -43 -33 -358
-146 -74 -27 -76 -28 -130 -109 -58 -86 -264 -385 -405 -588 -46 -66 -103
-153 -127 -192 -46 -77 -64 -84 -27 -11 61 121 553 866 591 895 16 12 441 170
467 173 2 0 -3 -10 -11 -22z m1586 -175 c24 -59 91 -224 150 -366 58 -142 110
-275 116 -295 20 -69 37 -236 30 -292 l-7 -55 -2 61 c-3 144 -38 259 -191 634
-39 96 -94 230 -121 296 -30 74 -47 128 -43 139 9 22 12 17 68 -122z m-455
-17 c8 -9 12 -19 9 -21 -9 -9 -258 126 -258 141 0 16 227 -93 249 -120z m-794
-45 c62 -65 136 -111 179 -111 l25 0 -24 -36 c-14 -20 -25 -40 -25 -44 0 -4
-7 -25 -16 -46 l-16 -39 -24 69 c-15 47 -36 83 -62 110 -57 60 -88 105 -111
161 -16 39 -17 45 -3 25 9 -14 44 -54 77 -89z m405 -126 c-19 -62 -72 -185
-81 -185 -4 0 -15 22 -24 49 -19 57 -50 101 -71 101 -17 0 -19 -17 -3 -22 7
-2 1 -19 -15 -42 -14 -21 -26 -43 -26 -47 0 -5 -7 -9 -15 -9 -63 0 82 201 197
272 l43 27 3 -52 c2 -29 -2 -70 -8 -92z m-1550 105 c0 -8 -3 -32 -6 -52 l-7
-38 -1203 0 -1204 0 0 49 0 50 43 3 c23 2 567 3 1209 3 1032 0 1168 -2 1168
-15z m1028 -318 c6 -2 21 13 34 32 13 20 25 36 28 36 3 -1 18 -12 33 -25 18
-16 37 -51 52 -96 l24 -71 -23 -91 c-30 -116 -53 -251 -66 -391 -5 -60 -12
-112 -15 -115 -5 -5 -120 52 -136 68 -4 3 -9 194 -11 424 l-4 418 37 -92 c20
-51 41 -95 47 -97z m523 -95 c-6 -135 -11 -331 -11 -436 l0 -191 -69 0 -68 0
-7 103 c-11 168 -26 296 -46 397 l-19 94 25 72 c15 40 37 82 49 94 l24 22 15
-36 c8 -20 20 -36 26 -36 11 0 80 138 80 161 0 7 3 10 6 6 3 -3 1 -116 -5
-250z m237 -55 c2 -7 -11 -10 -37 -9 -51 2 -81 -24 -81 -69 0 -38 29 -64 71
-64 37 0 61 31 58 74 -4 39 7 58 21 36 20 -31 11 -81 -19 -111 -41 -40 -91
-40 -132 0 -69 70 -4 185 90 161 14 -3 26 -11 29 -18z m-58 -61 c-11 -21 2
-37 20 -26 6 3 10 1 10 -5 0 -6 -10 -10 -22 -8 -26 3 -37 36 -16 49 19 12 20
11 8 -10z m2722 -138 c95 -36 238 -87 318 -112 l144 -47 -114 -66 c-63 -36
-157 -88 -208 -117 l-92 -51 -178 66 c-267 100 -524 206 -515 214 4 3 53 23
108 43 56 20 152 59 215 86 63 28 123 50 132 51 10 0 96 -30 190 -67z m-5742
22 c0 -2 -23 -23 -51 -45 l-51 -40 -256 0 -257 0 69 45 69 45 239 0 c131 0
238 -2 238 -5z m-12 -208 c-78 -69 -78 -69 -78 26 l0 84 58 41 57 40 3 -76 3
-77 -43 -38z m3210 71 l3 -98 -171 0 -170 0 0 99 0 100 168 -2 167 -2 3 -97z
m174 -114 c37 -44 82 -92 100 -107 l33 -26 -131 -1 c-156 0 -144 -15 -144 172
l0 128 38 -43 c21 -23 68 -78 104 -123z m-3490 60 c2 -47 1 -88 -1 -90 -2 -2
-62 -4 -132 -4 l-128 0 -3 48 -3 47 -127 3 -128 3 0 39 0 40 259 0 260 0 3
-86z m909 30 c27 -8 53 -23 59 -34 11 -20 12 -294 1 -450 l-6 -95 -40 -20
c-34 -17 -60 -20 -170 -20 -112 0 -137 3 -176 21 l-46 21 -6 99 c-10 150 -8
423 3 444 10 19 80 46 140 53 56 7 187 -3 241 -19z m775 -9 c32 -13 54 -24 47
-25 -6 0 -32 9 -56 19 -25 11 -47 17 -50 15 -3 -3 -8 -1 -12 5 -10 16 6 13 71
-14z m-1486 -158 l0 -154 -80 -66 c-43 -37 -82 -67 -85 -67 -3 0 -5 70 -3 155
l2 156 80 64 c45 36 82 65 84 65 1 0 2 -69 2 -153z m4727 101 c79 -13 143 -26
143 -29 0 -9 -55 -19 -106 -19 -37 0 -44 -3 -44 -20 0 -18 -4 -20 -40 -14 -39
6 -48 -2 -37 -33 1 -5 -14 -10 -33 -13 -29 -4 -36 -10 -38 -32 -3 -25 0 -28
27 -28 29 0 31 -2 28 -33 -2 -30 -4 -32 -34 -29 -29 4 -33 1 -33 -21 0 -21 5
-25 45 -30 25 -4 56 -9 70 -13 22 -5 25 -3 25 20 0 21 -6 28 -29 32 -23 5 -28
11 -29 35 -1 25 3 29 28 29 20 0 29 6 33 22 8 29 1 38 -29 38 -19 0 -24 5 -24
26 0 25 2 25 43 19 48 -8 68 -17 87 -39 10 -13 10 -16 -4 -16 -11 0 -16 -9
-16 -29 0 -26 4 -30 33 -33 29 -3 32 -6 32 -35 1 -29 -2 -33 -27 -33 -25 0
-28 -3 -28 -34 0 -49 -16 -57 -86 -46 -110 18 -214 43 -214 52 0 9 47 276 56
317 4 19 9 22 32 18 15 -3 91 -16 169 -29z m535 -39 c84 -34 195 -76 247 -95
52 -19 96 -36 98 -38 2 -2 -44 -20 -101 -41 -107 -38 -110 -41 -78 -77 13 -16
13 -18 -4 -24 -11 -4 -58 -24 -106 -45 -101 -43 -133 -41 -202 10 -23 17 -112
81 -198 143 -87 62 -158 115 -158 119 0 3 78 28 173 56 94 28 173 51 174 52 2
0 71 -26 155 -60z m-5752 1 l0 -50 -225 0 -225 0 0 50 0 50 225 0 225 0 0 -50z
m2150 30 c13 -8 13 -10 -2 -10 -9 0 -20 5 -23 10 -8 13 5 13 25 0z m4740 -336
c0 -6 -22 -30 -50 -53 -27 -23 -50 -46 -50 -50 0 -5 21 -22 46 -39 l47 -30
-42 -22 c-41 -21 -44 -21 -94 -4 l-52 17 -80 -85 c-67 -72 -92 -91 -152 -117
-39 -17 -76 -31 -81 -31 -23 0 -468 489 -455 500 4 4 53 22 108 40 85 27 105
30 134 21 32 -9 43 -6 130 39 53 26 143 64 201 84 l105 35 142 -147 c79 -81
143 -152 143 -158z m-6100 261 c0 -20 -5 -25 -23 -25 -42 0 -71 -43 -75 -113
-4 -76 20 -124 68 -134 24 -4 30 -11 30 -30 0 -22 -3 -24 -27 -19 -74 18 -113
78 -113 176 0 79 22 126 71 152 48 26 69 24 69 -7z m-500 -165 l0 -160 -105 0
-105 0 0 160 0 160 105 0 105 0 0 -160z m2040 136 l35 -13 -32 -16 c-75 -39
-129 -147 -121 -242 l5 -53 -51 20 c-28 11 -54 25 -59 31 -13 20 1 98 28 153
30 62 105 134 137 133 13 0 39 -6 58 -13z m-2353 -41 l-46 -35 -248 2 -247 3
49 32 50 33 244 0 244 0 -46 -35z m2729 -1 c76 -46 108 -76 150 -145 55 -92
39 -159 -20 -84 -85 109 -196 202 -196 165 0 -5 4 -10 8 -10 4 0 33 -22 64
-50 78 -70 123 -180 73 -180 -8 0 -23 10 -33 23 -40 51 -154 157 -164 151 -6
-4 20 -35 61 -73 72 -67 83 -89 56 -111 -15 -12 -55 -5 -55 10 0 11 -105 90
-120 90 -20 0 -8 -16 46 -58 30 -24 53 -49 51 -55 -6 -20 -54 -19 -96 2 -26
14 -59 21 -96 21 -61 0 -74 5 -153 58 -49 33 -52 38 -46 66 10 49 44 123 65
142 11 9 54 22 101 30 46 7 101 20 123 28 69 25 114 20 181 -20z m2260 -11
c-11 -74 -13 -78 -64 -102 -26 -12 -58 -31 -72 -42 -17 -13 -4 -10 37 10 73
36 73 36 73 14 -1 -20 -32 -46 -67 -57 -13 -4 -23 -12 -23 -18 0 -5 19 1 43
14 36 21 47 23 70 13 31 -12 27 -18 -26 -45 -16 -8 -24 -16 -19 -18 5 -1 30 9
56 23 31 17 54 23 70 19 24 -6 24 -6 5 -25 -10 -10 -21 -19 -24 -19 -2 0 -19
-9 -37 -21 -26 -16 -28 -19 -9 -14 13 4 45 20 70 37 42 27 51 29 106 22 33 -3
62 -8 64 -10 9 -9 -183 -224 -201 -224 -19 0 -468 304 -468 318 0 4 39 20 88
35 48 16 139 53 202 82 63 29 119 54 124 54 4 1 5 -20 2 -46z m-4176 22 c0
-10 -10 -15 -32 -15 -31 1 -32 1 -14 15 25 19 46 19 46 0z m4356 -5 c28 0 34
-4 34 -21 0 -15 -4 -19 -16 -15 -9 3 -31 6 -50 6 -28 0 -34 4 -34 21 0 15 4
19 16 15 9 -3 31 -6 50 -6z m199 -41 c28 -20 29 -21 5 -15 -14 3 -37 6 -52 6
-18 0 -28 5 -28 15 0 22 40 19 75 -6z m-4555 -74 c0 -46 -4 -75 -11 -75 -39 0
-69 51 -69 116 0 33 1 34 40 34 l40 0 0 -75z m4696 -22 c51 -37 92 -69 90 -71
-2 -2 -41 5 -87 15 -59 13 -83 23 -87 35 -2 10 -18 20 -38 24 -29 5 -34 10
-34 35 0 26 3 29 31 29 23 0 57 -19 125 -67z m-343 11 c20 -4 37 -11 37 -16 0
-11 -91 0 -104 13 -12 11 13 11 67 3z m187 -18 c0 -2 -13 -6 -30 -8 -16 -3
-30 -1 -30 4 0 4 14 8 30 8 17 0 30 -2 30 -4z m43 -13 c-7 -2 -19 -2 -25 0 -7
3 -2 5 12 5 14 0 19 -2 13 -5z m172 -68 c110 -25 234 -53 275 -62 41 -9 78
-19 83 -23 21 -18 -198 -327 -291 -410 -65 -58 -99 -67 -180 -51 -51 10 -58
10 -67 -6 -19 -34 -73 -83 -92 -83 -10 0 -126 32 -257 72 l-239 72 59 49 c102
86 337 330 399 415 52 71 63 82 85 77 14 -2 115 -25 225 -50z m476 -37 c41
-45 66 -79 57 -75 -47 18 -52 18 -28 -2 14 -11 34 -21 45 -21 19 0 77 -50 58
-50 -5 0 -36 11 -69 24 -85 34 -108 40 -100 27 4 -6 14 -11 22 -11 9 0 39 -11
67 -24 29 -13 63 -27 77 -31 30 -8 141 -115 134 -127 -7 -11 -143 -111 -172
-127 -18 -10 -40 -4 -139 35 -158 62 -195 82 -186 97 4 7 29 44 54 82 48 73
89 148 89 163 0 5 -38 17 -85 27 -47 10 -83 21 -80 23 8 9 158 71 171 72 6 0
44 -37 85 -82z m320 -344 l36 -35 59 26 59 26 -75 -75 -75 -74 -157 -7 -157
-7 -20 33 c-11 18 -19 35 -17 37 2 2 26 -4 54 -14 l49 -18 44 27 c24 14 69 46
99 71 30 24 57 45 60 45 2 1 21 -15 41 -35z m-561 6 c-28 -8 -35 -6 -26 8 3 6
16 7 29 4 22 -6 22 -6 -3 -12z m477 -235 c-38 -35 -66 -68 -63 -74 3 -5 51
-28 106 -52 55 -23 97 -46 93 -50 -4 -4 -47 -21 -95 -38 l-86 -30 -75 132
c-41 73 -80 142 -86 155 l-12 22 143 0 143 -1 -68 -64z m-788 35 c22 -5 17 -9
-35 -27 -32 -12 -69 -25 -82 -28 l-23 -7 26 41 c29 43 32 43 114 21z"/>
<path d="M4153 3083 c11 -17 103 -36 129 -27 18 7 10 10 -37 15 -33 4 -69 10
-79 14 -13 6 -17 5 -13 -2z"/>
<path d="M4146 2924 c-4 -14 -5 -29 -2 -31 3 -3 8 7 12 21 3 15 4 29 1 32 -2
3 -8 -7 -11 -22z"/>
<path d="M4035 2919 c-27 -10 -64 -18 -81 -19 -43 0 -96 -20 -91 -34 5 -15
151 -13 199 3 36 12 56 40 43 61 -7 12 -7 12 -70 -11z"/>
<path d="M4272 2885 c0 -16 2 -22 5 -12 2 9 2 23 0 30 -3 6 -5 -1 -5 -18z"/>
<path d="M560 3137 c-14 -7 -26 -23 -28 -37 -2 -14 -10 -32 -18 -41 -11 -12
-14 -35 -12 -75 l3 -59 85 0 85 0 3 53 c2 30 -1 59 -6 65 -5 7 -13 26 -16 44
-11 50 -53 72 -96 50z m8 -18 c-10 -5 -19 -20 -19 -32 -1 -18 -2 -18 -6 -4 -5
20 13 47 31 47 6 0 3 -5 -6 -11z m50 -36 c3 -20 -1 -23 -27 -23 -23 0 -31 5
-31 18 0 25 10 33 35 30 12 -2 21 -12 23 -25z m19 -15 c-3 -7 -5 -2 -5 12 0
14 2 19 5 13 2 -7 2 -19 0 -25z m23 -83 l0 -55 -70 0 -70 0 0 55 0 55 70 0 70
0 0 -55z"/>
<path d="M572 3018 c-16 -20 -3 -68 18 -68 20 0 32 40 18 64 -11 19 -22 20
-36 4z"/>
<path d="M550 2586 c0 -31 5 -56 10 -56 6 0 10 6 10 14 0 8 12 16 26 18 63 7
55 71 -10 76 l-36 3 0 -55z m65 14 c0 -8 -10 -16 -22 -18 -18 -3 -23 2 -23 18
0 16 5 21 23 18 12 -2 22 -10 22 -18z"/>
<path d="M535 2365 c-66 -65 20 -173 93 -118 54 40 52 106 -5 132 -37 17 -62
13 -88 -14z m105 -59 c-1 -6 -6 -1 -13 12 -7 12 -17 19 -22 15 -4 -4 -5 -2 0
6 7 12 10 11 22 -4 7 -11 13 -24 13 -29z m-15 -26 c-3 -5 -10 -10 -16 -10 -5
0 -9 5 -9 10 0 6 7 10 16 10 8 0 12 -4 9 -10z"/>
<path d="M1141 3194 c0 -11 3 -14 6 -6 3 7 2 16 -1 19 -3 4 -6 -2 -5 -13z"/>
<path d="M857 3173 c-11 -10 -8 -51 3 -58 6 -4 10 8 10 29 0 37 -2 41 -13 29z"/>
<path d="M970 3130 c0 -6 -13 -9 -28 -8 -15 1 -34 -2 -41 -7 -21 -12 16 -36
46 -29 14 4 23 2 23 -5 0 -6 16 -11 35 -11 30 0 35 3 35 24 0 28 -3 30 -42 40
-17 4 -28 2 -28 -4z m60 -30 c0 -15 -7 -20 -25 -20 -18 0 -25 5 -25 20 0 15 7
20 25 20 18 0 25 -5 25 -20z"/>
<path d="M1092 3068 c-2 -28 -6 -36 -16 -32 -18 7 -32 -16 -16 -26 22 -14 42
16 37 57 l-4 38 -1 -37z"/>
<path d="M1140 3064 c0 -21 4 -33 10 -29 6 3 10 19 10 36 0 16 -4 29 -10 29
-5 0 -10 -16 -10 -36z"/>
<path d="M966 3034 c-5 -13 -9 -14 -20 -5 -10 8 -16 9 -21 1 -10 -16 3 -29 25
-23 11 3 20 0 20 -6 0 -6 16 -11 36 -11 33 0 35 2 32 28 -2 22 -9 28 -34 30
-22 2 -33 -2 -38 -14z m54 -14 c0 -13 -7 -20 -20 -20 -13 0 -20 7 -20 20 0 13
7 20 20 20 13 0 20 -7 20 -20z"/>
<path d="M904 2980 c1 -42 3 -45 31 -48 16 -2 32 -7 35 -12 10 -17 58 -15 78
4 12 10 27 16 34 13 8 -3 6 -6 -5 -6 -10 -1 -15 -6 -12 -11 4 -7 13 -6 27 1
20 11 20 12 4 24 -9 7 -25 11 -35 8 -10 -3 -22 0 -25 6 -11 16 -63 13 -70 -4
-3 -8 -17 -15 -30 -15 -22 0 -25 5 -29 43 l-4 42 1 -45z m126 -45 c0 -9 -9
-15 -25 -15 -16 0 -25 6 -25 15 0 9 9 15 25 15 16 0 25 -6 25 -15z"/>
<path d="M953 2614 c-15 -24 -15 -29 -2 -53 16 -29 70 -41 95 -20 21 18 18 76
-5 89 -35 18 -69 12 -88 -16z m82 -28 c0 -42 -29 -57 -56 -30 -29 29 -11 67
29 62 22 -2 27 -8 27 -32z"/>
<path d="M950 2365 c-32 -34 -30 -83 5 -112 52 -46 125 -13 125 56 0 73 -81
108 -130 56z m26 -64 c-9 -14 47 -21 64 -8 13 10 13 10 1 -5 -16 -21 -51 -24
-69 -6 -15 15 -15 28 -1 28 5 0 8 -4 5 -9z"/>
<path d="M1450 3005 c0 -69 3 -87 16 -92 25 -9 34 16 34 100 0 76 0 77 -25 77
-25 0 -25 -1 -25 -85z m40 46 c0 -50 -12 -121 -21 -121 -5 0 -9 34 -9 75 0 60
3 75 15 75 10 0 15 -10 15 -29z"/>
<path d="M1384 3016 c-3 -13 -4 -38 -2 -57 2 -26 8 -35 26 -37 21 -3 22 0 22
57 0 54 -2 61 -20 61 -12 0 -22 -9 -26 -24z m36 -31 c0 -25 -4 -45 -10 -45 -5
0 -10 20 -10 45 0 25 5 45 10 45 6 0 10 -20 10 -45z"/>
<path d="M1320 2955 c0 -28 4 -35 20 -35 16 0 20 7 20 35 0 28 -4 35 -20 35
-16 0 -20 -7 -20 -35z m30 0 c0 -14 -4 -25 -10 -25 -5 0 -10 11 -10 25 0 14 5
25 10 25 6 0 10 -11 10 -25z"/>
<path d="M1377 2633 c-17 -17 -5 -45 23 -56 36 -14 34 -33 -4 -29 -14 1 -26
-2 -26 -8 0 -7 15 -10 38 -8 32 3 37 6 37 28 0 17 -7 26 -24 30 -38 9 -38 30
-1 30 18 0 29 4 25 10 -7 11 -58 14 -68 3z"/>
<path d="M1355 2364 c-33 -36 -31 -69 4 -105 36 -36 60 -37 100 -3 39 33 41
74 6 109 -33 34 -78 33 -110 -1z m105 -64 c0 -19 -48 -42 -66 -32 -19 10 -10
19 34 32 15 5 28 9 30 9 1 1 2 -3 2 -9z"/>
<path d="M1931 3090 c0 -29 1 -32 10 -17 7 11 7 23 0 35 -9 14 -10 11 -10 -18z"/>
<path d="M1798 3073 c18 -2 45 -2 60 0 15 2 0 4 -33 4 -33 0 -45 -2 -27 -4z"/>
<path d="M1790 3021 c0 -6 -17 -11 -37 -13 -31 -2 -39 -7 -41 -25 -3 -21 1
-23 36 -23 22 0 42 -5 44 -12 3 -7 16 -3 37 13 l32 24 -28 22 c-30 25 -43 29
-43 14z m41 -45 c-5 -6 -31 -10 -60 -8 -56 4 -71 22 -18 22 17 0 39 4 47 10
19 12 44 -8 31 -24z"/>
<path d="M1932 2900 c0 -14 2 -19 5 -12 2 6 2 18 0 25 -3 6 -5 1 -5 -13z"/>
<path d="M1800 2585 c0 -30 5 -55 10 -55 6 0 10 25 10 55 0 30 -4 55 -10 55
-5 0 -10 -25 -10 -55z"/>
<path d="M1755 2365 c-16 -15 -25 -36 -25 -55 0 -39 39 -80 75 -80 30 0 85 49
85 75 0 21 -19 57 -39 72 -26 20 -70 15 -96 -12z m90 -85 c-3 -5 -12 -10 -18
-10 -7 0 -6 4 3 10 19 12 23 12 15 0z"/>
<path d="M2332 3070 c0 -14 2 -19 5 -12 2 6 2 18 0 25 -3 6 -5 1 -5 -13z"/>
<path d="M2219 3065 c-1 -6 -2 -17 -3 -25 -1 -11 -16 -16 -53 -18 l-53 -3 0
-35 0 -34 50 0 c42 0 52 -4 58 -20 7 -19 9 -19 45 11 20 17 37 36 37 43 0 15
-80 94 -81 81z m44 -108 c-22 -22 -29 -25 -31 -13 -3 12 -16 16 -53 16 -46 0
-49 2 -49 26 0 14 4 23 9 19 19 -11 91 7 91 23 0 11 8 8 30 -13 l30 -29 -27
-29z"/>
<path d="M2069 3018 c0 -13 -2 -35 -4 -50 -2 -16 1 -28 6 -28 5 0 9 23 9 50 0
49 -9 73 -11 28z"/>
<path d="M2123 2627 c3 -8 11 -33 18 -56 15 -50 34 -53 49 -6 13 40 25 38 35
-5 10 -44 31 -37 49 17 18 53 19 63 8 63 -5 0 -15 -19 -22 -42 l-13 -43 -14
43 c-17 49 -33 50 -47 4 -5 -18 -12 -32 -16 -32 -4 0 -11 14 -16 32 -5 17 -16
34 -23 36 -9 3 -12 0 -8 -11z"/>
<path d="M2151 2364 c-28 -36 -27 -79 4 -109 71 -72 174 37 105 110 -32 35
-82 34 -109 -1z m95 -80 c-6 -15 -61 -20 -70 -6 -3 5 8 6 24 4 25 -4 30 0 37
24 5 22 8 24 11 11 2 -10 1 -25 -2 -33z"/>
<path d="M2554 3091 c-19 -11 -37 -34 -43 -54 -28 -85 64 -166 142 -126 62 32
76 108 30 159 -36 40 -86 48 -129 21z m115 -37 c27 -35 26 -66 -2 -100 -31
-35 -77 -37 -112 -4 -51 48 -16 130 55 130 30 0 43 -6 59 -26z"/>
<path d="M2600 2585 c0 -30 5 -55 10 -55 6 0 10 25 10 55 0 30 -4 55 -10 55
-5 0 -10 -25 -10 -55z"/>
<path d="M2555 2365 c-14 -13 -25 -36 -25 -50 0 -32 50 -85 80 -85 30 0 80 53
80 85 0 36 -41 75 -80 75 -19 0 -40 -9 -55 -25z m79 -84 c8 -12 -20 -22 -40
-14 -13 5 -13 7 -2 14 17 11 35 11 42 0z"/>
<path d="M3142 3150 c0 -14 2 -19 5 -12 2 6 2 18 0 25 -3 6 -5 1 -5 -13z"/>
<path d="M2939 3071 c-73 -74 8 -188 104 -147 43 17 58 44 56 94 -1 20 2 44 5
53 9 21 -10 35 -27 20 -8 -6 -18 -6 -27 -1 -31 20 -81 11 -111 -19z m99 11
c22 -14 -30 -54 -61 -47 -32 9 -42 -8 -22 -39 25 -38 43 -39 85 -6 47 37 52
37 44 3 -8 -38 -40 -63 -78 -63 -80 1 -110 98 -44 144 24 17 55 20 76 8z m15
-54 c-51 -51 -52 -52 -73 -33 -23 21 -19 35 5 15 14 -12 22 -8 58 28 23 23 46
42 52 42 5 0 -14 -23 -42 -52z"/>
<path d="M2960 2585 l0 -55 38 0 c41 0 72 23 72 53 0 29 -37 57 -75 57 l-35 0
0 -55z m81 14 c13 -24 -2 -45 -36 -51 -17 -2 -21 3 -23 35 -3 34 -1 37 22 37
16 0 30 -8 37 -21z"/>
<path d="M3562 2808 c-19 -19 -14 -29 12 -22 31 8 54 -27 31 -46 -21 -18 -19
-33 4 -27 13 3 21 -1 24 -14 7 -25 27 -24 27 1 0 32 -31 100 -51 110 -23 13
-32 13 -47 -2z"/>
<path d="M4020 2332 c-45 -14 -26 -23 50 -26 41 -2 85 -7 98 -11 31 -10 29 13
-3 25 -36 14 -116 20 -145 12z"/>
<path d="M3950 2720 c-9 -16 -8 -25 1 -36 27 -33 75 -2 52 35 -15 24 -40 25
-53 1z"/>
<path d="M4015 2660 c-3 -5 -20 -14 -38 -19 -26 -7 -28 -9 -9 -10 22 -1 82 24
82 34 0 9 -29 5 -35 -5z"/>
<path d="M4333 2683 c-18 -7 -16 -60 2 -67 8 -3 22 -3 30 0 20 8 19 60 -1 68
-9 3 -16 6 -17 5 -1 0 -8 -3 -14 -6z"/>
<path d="M4273 2630 c4 -17 64 -60 81 -60 6 1 -2 8 -19 17 -16 8 -38 25 -48
37 -11 13 -17 15 -14 6z"/>
<path d="M6907 1435 c-37 -18 -80 -36 -96 -40 -29 -6 -64 -35 -43 -35 6 0 14
5 17 10 3 6 14 10 23 10 9 1 58 21 107 45 50 24 83 44 75 44 -8 0 -45 -15 -83
-34z"/>
<path d="M7014 1414 c-18 -14 -18 -15 4 -4 12 6 22 13 22 15 0 8 -5 6 -26 -11z"/>
<path d="M6893 1367 c-29 -12 -53 -25 -53 -29 0 -6 108 37 119 48 9 8 -16 1
-66 -19z"/>
<path d="M6923 1354 c-29 -13 -53 -26 -53 -29 0 -5 110 42 119 50 10 11 -17 2
-66 -21z"/>
<path d="M7020 1360 c-9 -6 -10 -10 -3 -10 6 0 15 5 18 10 8 12 4 12 -15 0z"/>
<path d="M7098 1327 c-88 -43 -132 -71 -68 -45 52 22 176 87 165 87 -5 -1 -49
-19 -97 -42z"/>
<path d="M6675 1341 c-10 -17 34 -34 51 -20 12 10 12 14 2 20 -18 12 -46 11
-53 0z"/>
<path d="M6950 1330 c-19 -11 -30 -19 -25 -19 6 0 26 8 45 19 19 11 31 19 25
19 -5 0 -26 -8 -45 -19z"/>
<path d="M7010 1330 c-9 -6 -10 -10 -3 -10 6 0 15 5 18 10 8 12 4 12 -15 0z"/>
<path d="M7222 1285 c-51 -29 -96 -56 -100 -60 -10 -11 126 59 173 89 70 44
24 26 -73 -29z"/>
<path d="M6764 1309 c-7 -12 12 -29 33 -29 19 0 27 21 12 31 -19 12 -36 11
-45 -2z"/>
<path d="M6964 1304 c-18 -14 -18 -15 4 -4 12 6 22 13 22 15 0 8 -5 6 -26 -11z"/>
<path d="M7070 1285 c-25 -13 -40 -24 -35 -24 6 0 30 11 55 24 25 13 41 24 35
24 -5 0 -30 -11 -55 -24z"/>
<path d="M7334 1285 c-10 -8 -14 -15 -8 -15 6 0 17 7 24 15 16 19 9 19 -16 0z"/>
<path d="M6851 1276 c-11 -13 -8 -16 14 -22 23 -6 56 9 44 20 -15 13 -48 15
-58 2z"/>
<path d="M7133 1267 c-23 -12 -42 -25 -43 -30 0 -9 76 29 85 43 8 13 9 13 -42
-13z"/>
<path d="M7268 1249 c-37 -19 -57 -39 -39 -39 6 0 11 5 11 10 0 6 6 10 14 10
8 0 24 9 37 20 29 24 25 23 -23 -1z"/>
<path d="M6934 1239 c-7 -13 13 -29 37 -29 23 0 30 11 18 27 -14 16 -45 17
-55 2z"/>
<path d="M7343 1240 c-13 -5 -23 -14 -23 -20 0 -8 28 5 59 27 9 6 -15 1 -36
-7z"/>
<path d="M7030 1196 c0 -17 34 -31 50 -21 16 10 -8 35 -31 35 -11 0 -19 -6
-19 -14z m35 -6 c3 -6 -1 -7 -9 -4 -18 7 -21 14 -7 14 6 0 13 -4 16 -10z"/>
<path d="M7185 1200 c-3 -5 -2 -10 4 -10 5 0 13 5 16 10 3 6 2 10 -4 10 -5 0
-13 -4 -16 -10z"/>
<path d="M7250 1190 c-37 -28 -20 -32 20 -4 19 13 28 24 20 24 -8 0 -26 -9
-40 -20z"/>
<path d="M4315 1398 c-4 -10 -4 -26 -1 -35 6 -15 8 -15 16 -3 8 12 10 12 10 1
0 -10 3 -11 14 -2 11 9 15 9 19 -1 3 -7 6 2 6 20 1 17 -3 32 -9 32 -5 0 -10
-7 -10 -15 0 -20 -10 -19 -26 3 -12 16 -13 16 -19 0z"/>
<path d="M4390 1380 c0 -24 4 -30 23 -30 18 0 19 2 7 10 -13 9 -13 11 0 20 13
9 13 10 0 10 -13 0 -13 1 0 10 12 8 11 10 -7 10 -19 0 -23 -6 -23 -30z"/>
<path d="M4440 1379 c0 -27 2 -30 15 -19 10 9 15 9 15 1 0 -6 4 -11 8 -11 4 0
8 12 7 28 0 20 -6 28 -22 30 -20 3 -23 -1 -23 -29z"/>
<path d="M4504 1395 c-9 -23 3 -45 26 -45 11 0 20 7 20 15 0 8 -5 15 -11 15
-5 0 -7 -4 -4 -10 3 -5 -1 -10 -9 -10 -10 0 -16 9 -16 21 0 16 5 20 20 16 11
-3 18 -1 14 4 -8 14 -34 11 -40 -6z"/>
<path d="M4560 1380 c0 -25 4 -30 23 -29 17 1 18 2 4 6 -14 4 -16 8 -6 19 9
11 8 14 -2 15 -8 0 -5 4 6 9 19 8 19 9 -2 9 -19 1 -23 -4 -23 -29z"/>
<path d="M4373 1304 c-3 -8 2 -23 11 -32 13 -13 18 -14 28 -3 11 10 10 11 -4
6 -14 -6 -18 -2 -18 15 0 16 4 20 15 16 8 -3 15 -1 15 4 0 16 -40 11 -47 -6z"/>
<path d="M4434 1305 c-9 -23 4 -47 23 -43 11 2 19 14 21 31 3 22 -1 27 -18 27
-11 0 -23 -7 -26 -15z m36 -15 c0 -11 -4 -20 -9 -20 -14 0 -23 18 -16 30 10
17 25 11 25 -10z"/>
<path d="M4490 1297 c0 -33 9 -38 31 -19 26 23 24 42 -6 42 -20 0 -25 -5 -25
-23z m40 9 c0 -3 -4 -8 -10 -11 -5 -3 -10 -1 -10 4 0 6 5 11 10 11 6 0 10 -2
10 -4z"/>
<path d="M1935 1303 c-85 -18 -96 -49 -25 -71 58 -17 242 -17 300 0 64 20 62
47 -5 65 -47 12 -225 16 -270 6z"/>
<path d="M1922 1118 c-27 -27 -6 -68 35 -68 13 0 23 4 23 8 0 5 -10 8 -22 8
-17 -1 -24 5 -26 22 -3 18 1 22 23 22 15 0 24 4 20 10 -8 14 -38 13 -53 -2z"/>
<path d="M2067 1116 c-3 -8 -2 -27 3 -43 7 -24 8 -25 9 -5 1 28 31 30 31 2 0
-25 20 -27 21 -2 1 9 3 27 4 40 2 23 -9 30 -20 12 -3 -5 -11 -10 -16 -10 -6 0
-7 5 -4 10 3 6 0 10 -8 10 -8 0 -17 -6 -20 -14z"/>
<path d="M2000 1100 c0 -6 4 -9 9 -5 5 3 12 1 15 -4 3 -5 -4 -11 -15 -14 -28
-7 -15 -27 17 -27 22 0 25 4 22 28 -2 19 -9 28 -25 30 -13 2 -23 -2 -23 -8z"/>
<path d="M2154 1095 c-10 -24 4 -45 28 -44 22 0 22 1 3 9 -19 8 -19 9 3 9 25
1 28 11 10 29 -16 16 -37 15 -44 -3z m31 -5 c3 -5 1 -10 -4 -10 -6 0 -11 5
-11 10 0 6 2 10 4 10 3 0 8 -4 11 -10z"/>
<path d="M2060 1000 c0 -6 -12 -15 -26 -20 -36 -14 -30 -54 9 -58 26 -3 27 -2
27 42 0 25 -2 46 -5 46 -3 0 -5 -5 -5 -10z m-7 -46 c-5 -17 -23 -16 -23 1 0 9
6 15 13 13 6 -3 11 -9 10 -14z"/>
<path d="M2090 999 c0 -5 5 -7 10 -4 6 3 10 8 10 11 0 2 -4 4 -10 4 -5 0 -10
-5 -10 -11z"/>
<path d="M2090 950 c0 -16 5 -30 10 -30 6 0 10 14 10 30 0 17 -4 30 -10 30 -5
0 -10 -13 -10 -30z"/>
<path d="M1880 840 c0 -22 5 -40 10 -40 6 0 10 7 10 16 0 14 2 15 17 3 13 -11
17 -11 20 -1 7 18 21 15 26 -5 3 -10 5 1 6 25 1 48 -10 54 -28 15 l-13 -28
-14 28 c-21 39 -34 34 -34 -13z"/>
<path d="M2150 870 c0 -5 -6 -10 -14 -10 -20 0 -37 -25 -30 -44 4 -10 18 -16
35 -16 27 0 29 3 29 40 0 22 -4 40 -10 40 -5 0 -10 -4 -10 -10z m0 -46 c0 -16
-16 -19 -25 -4 -8 13 4 32 16 25 5 -4 9 -13 9 -21z"/>
<path d="M1997 853 c-4 -3 -7 -17 -7 -30 0 -19 5 -23 28 -22 23 0 24 2 8 8
-19 7 -18 8 4 14 20 5 21 8 10 21 -13 17 -32 21 -43 9z m33 -13 c0 -5 -4 -10
-10 -10 -5 0 -10 5 -10 10 0 6 5 10 10 10 6 0 10 -4 10 -10z"/>
<path d="M2060 830 c0 -16 5 -30 10 -30 6 0 10 8 10 18 0 10 5 23 12 30 9 9 7
12 -10 12 -18 0 -22 -6 -22 -30z"/>
<path d="M2205 851 c19 -8 19 -8 -3 -15 -30 -10 -23 -30 12 -34 25 -3 27 -1
24 25 -2 22 -9 29 -28 30 -22 2 -23 2 -5 -6z"/>
<path d="M6456 1179 c-33 -11 -61 -21 -63 -23 -3 -2 16 -20 42 -39 l46 -35 45
15 c42 14 46 14 65 -3 19 -17 19 -18 -8 -46 l-27 -28 61 0 c52 0 63 -3 76 -22
8 -13 18 -19 23 -14 5 5 4 11 -3 13 -20 7 -15 33 12 68 30 40 78 60 95 40 9
-10 6 -15 -9 -20 -27 -8 -26 -16 3 -44 l24 -23 51 28 c28 15 51 31 51 35 0 18
-43 38 -61 28 -14 -7 -26 -5 -44 7 -24 16 -28 16 -63 0 -20 -9 -60 -20 -88
-25 -43 -6 -56 -5 -75 11 l-24 18 23 6 c30 9 28 19 -11 48 -39 30 -61 31 -141
5z m123 -10 c39 -24 38 -25 -46 -54 l-51 -18 -31 26 -31 25 58 20 c31 11 59
21 62 21 3 1 20 -9 39 -20z m338 -85 c2 -6 -15 -19 -37 -29 -38 -17 -42 -17
-57 -2 -15 15 -15 17 8 25 13 5 31 12 39 15 21 8 43 4 47 -9z m-207 -11 c0
-23 -37 -43 -78 -43 -44 0 -45 0 -27 19 9 11 34 22 54 24 20 2 39 4 44 5 4 1
7 -1 7 -5z"/>
<path d="M6730 978 c-66 -25 -67 -25 -52 -40 8 -8 23 -7 59 7 57 21 71 31 58
44 -6 6 -32 1 -65 -11z m10 -18 c-8 -5 -19 -10 -25 -10 -5 0 -3 5 5 10 8 5 20
10 25 10 6 0 3 -5 -5 -10z"/>
<path d="M7587 1119 c-18 -10 -17 -13 14 -45 32 -33 32 -34 13 -48 -16 -13
-21 -13 -33 -1 -11 10 -19 11 -38 2 -22 -10 -28 -8 -44 12 -14 17 -25 22 -44
17 -14 -4 -25 -10 -25 -15 0 -5 24 -36 54 -69 l53 -60 94 39 c52 22 98 44 103
49 7 7 -11 31 -49 70 -62 63 -69 66 -98 49z m85 -56 c53 -52 58 -63 29 -63
-18 0 -101 85 -101 103 0 19 28 3 72 -40z m-149 -70 c34 -36 44 -53 36 -59
-15 -9 -112 92 -103 107 8 14 13 10 67 -48z m71 -2 c23 -24 25 -29 11 -35 -17
-6 -67 42 -58 56 8 14 19 9 47 -21z m67 13 c10 -13 10 -17 -2 -25 -8 -5 -17
-9 -20 -9 -13 0 -31 29 -24 40 9 15 31 12 46 -6z"/>
<path d="M7355 988 c-2 -7 -5 -22 -7 -33 -3 -15 -10 -19 -31 -17 -20 3 -27 -1
-27 -13 0 -9 -9 -19 -20 -22 -11 -3 -20 -11 -20 -18 0 -7 -9 -15 -20 -18 -21
-5 -28 -41 -10 -52 14 -9 12 -25 -2 -25 -7 0 -42 34 -77 75 -35 42 -66 73 -69
71 -6 -7 138 -167 147 -162 10 6 87 40 185 82 71 30 85 39 69 45 -11 4 -37 28
-58 53 -39 47 -53 55 -60 34z m79 -97 c-5 -4 -47 -25 -93 -46 -58 -26 -88 -35
-98 -29 -19 12 -13 30 10 27 11 -2 17 4 17 17 0 11 6 20 14 20 8 0 17 9 21 19
4 12 12 18 21 14 20 -7 44 15 44 41 1 18 5 16 36 -17 20 -22 32 -42 28 -46z"/>
<path d="M7625 860 c-44 -21 -75 -39 -69 -39 13 -1 164 68 164 74 0 9 -14 4
-95 -35z"/>
<path d="M7757 848 c-32 -17 -56 -32 -53 -35 2 -2 35 12 72 31 38 19 62 35 54
35 -8 0 -41 -14 -73 -31z"/>
<path d="M7480 801 c-25 -9 -51 -20 -58 -24 -6 -5 -16 -6 -21 -3 -5 3 -11 -1
-15 -9 -3 -8 -12 -12 -21 -9 -8 3 -15 1 -15 -5 0 -18 26 -13 74 14 25 14 53
25 63 25 19 0 51 17 43 22 -3 2 -25 -3 -50 -11z"/>
<path d="M7580 770 c-30 -16 -81 -37 -114 -45 -32 -9 -55 -19 -52 -22 7 -8
111 24 146 44 14 8 40 21 58 29 30 13 41 24 25 24 -5 0 -33 -14 -63 -30z"/>
<path d="M7720 765 c-25 -13 -42 -24 -39 -25 10 0 99 40 99 45 0 9 -15 4 -60
-20z"/>
<path d="M7297 733 c-4 -3 -7 -12 -7 -20 0 -15 26 -18 34 -4 7 11 -18 33 -27
24z m18 -13 c3 -5 1 -10 -4 -10 -6 0 -11 5 -11 10 0 6 2 10 4 10 3 0 8 -4 11
-10z"/>
<path d="M7635 720 c-3 -5 -15 -10 -25 -10 -11 0 -35 -9 -55 -20 -20 -11 -43
-20 -53 -20 -22 -1 -58 -28 -48 -37 4 -4 10 -3 14 3 4 5 28 18 54 28 26 10 50
22 53 27 4 5 16 9 29 9 23 0 71 29 49 30 -6 0 -15 -4 -18 -10z"/>
<path d="M7364 672 c3 -6 -2 -13 -11 -15 -14 -4 -13 -5 5 -6 23 -1 30 13 10
25 -6 4 -8 3 -4 -4z"/>
<path d="M7376 621 c-9 -15 23 -36 36 -23 5 5 7 15 4 21 -9 13 -33 14 -40 2z"/>
<path d="M5831 1001 c-39 -20 -50 -29 -39 -34 9 -3 22 1 28 8 7 8 15 14 18 13
12 -3 62 25 62 34 0 12 -9 9 -69 -21z"/>
<path d="M5740 966 c0 -2 7 -9 15 -16 12 -10 15 -10 15 4 0 9 -7 16 -15 16 -8
0 -15 -2 -15 -4z"/>
<path d="M5700 940 c0 -5 5 -10 11 -10 5 0 7 5 4 10 -3 6 -8 10 -11 10 -2 0
-4 -4 -4 -10z"/>
<path d="M6160 845 c-11 -13 -10 -14 4 -9 9 3 16 10 16 15 0 13 -6 11 -20 -6z"/>
<path d="M6120 822 c0 -5 -12 -14 -26 -21 -15 -6 -24 -14 -21 -18 4 -3 20 3
38 14 19 13 27 23 20 27 -6 4 -11 3 -11 -2z"/>
<path d="M6030 767 c0 -10 8 -17 18 -17 9 0 13 4 7 8 -5 4 -13 11 -17 16 -5 5
-8 2 -8 -7z"/>
<path d="M6334 859 c-3 -6 -2 -15 3 -20 5 -5 9 -1 9 11 0 23 -2 24 -12 9z"/>
<path d="M6371 846 c-9 -10 -9 -16 -1 -21 17 -10 37 12 24 25 -8 8 -15 6 -23
-4z"/>
<path d="M6433 843 c-13 -2 -23 -11 -23 -19 0 -21 28 -17 40 6 6 11 9 19 8 19
-2 -1 -13 -4 -25 -6z"/>
<path d="M6456 821 c-3 -5 0 -14 8 -20 11 -9 15 -8 20 5 3 8 6 18 6 20 0 8
-29 4 -34 -5z"/>
<path d="M6540 815 c-7 -9 -10 -18 -7 -21 3 -3 10 4 17 15 13 25 8 27 -10 6z"/>
<path d="M6330 790 c0 -5 3 -9 8 -8 4 1 20 -4 35 -10 34 -15 37 -15 37 -2 0 6
-3 9 -7 8 -5 -1 -21 4 -36 10 -34 15 -37 15 -37 2z"/>
<path d="M6420 760 c0 -5 5 -10 10 -10 6 0 10 5 10 10 0 6 -4 10 -10 10 -5 0
-10 -4 -10 -10z"/>
<path d="M6328 739 c-3 -9 13 -20 46 -31 58 -21 66 -22 66 -8 0 6 -6 10 -14
10 -8 0 -27 5 -43 11 -15 6 -30 11 -33 11 -3 0 -8 4 -11 10 -4 6 -8 5 -11 -3z"/>
<path d="M6500 740 c0 -5 5 -10 11 -10 5 0 7 5 4 10 -3 6 -8 10 -11 10 -2 0
-4 -4 -4 -10z"/>
<path d="M6543 728 c2 -7 7 -13 12 -13 5 0 10 6 13 13 2 6 -4 12 -13 12 -9 0
-15 -6 -12 -12z"/>
<path d="M6286 693 c-12 -12 -6 -25 8 -20 8 3 16 1 19 -6 2 -7 6 -7 10 -1 6
11 -27 36 -37 27z"/>
<path d="M6460 692 c0 -8 28 -20 53 -22 14 0 12 13 -3 16 -8 1 -23 5 -32 9
-10 4 -18 3 -18 -3z"/>
<path d="M6551 664 c0 -11 3 -14 6 -6 3 7 2 16 -1 19 -3 4 -6 -2 -5 -13z"/>
<path d="M6340 660 c0 -5 5 -10 10 -10 6 0 10 5 10 10 0 6 -4 10 -10 10 -5 0
-10 -4 -10 -10z"/>
<path d="M6570 662 c0 -10 41 -24 49 -17 6 7 0 11 -26 19 -13 4 -23 3 -23 -2z"/>
<path d="M6400 645 c0 -8 2 -15 4 -15 2 0 6 7 10 15 3 8 1 15 -4 15 -6 0 -10
-7 -10 -15z"/>
<path d="M6665 630 c-5 -8 66 -32 73 -25 2 2 -2 10 -9 17 -15 14 -57 19 -64 8z"/>
<path d="M6157 613 c-15 -14 -6 -25 10 -12 15 12 16 12 10 -4 -4 -10 -3 -16 2
-12 5 3 12 -1 14 -7 4 -9 6 -8 6 3 2 25 -27 47 -42 32z"/>
<path d="M6237 576 c-4 -9 -3 -15 2 -12 5 3 12 -1 15 -10 3 -8 10 -12 16 -9
15 9 12 25 -4 25 -8 0 -16 5 -18 12 -3 7 -7 5 -11 -6z"/>
<path d="M6160 525 c0 -8 2 -15 4 -15 2 0 6 7 10 15 3 8 1 15 -4 15 -6 0 -10
-7 -10 -15z"/>
<path d="M6340 529 c0 -6 7 -9 15 -5 8 3 15 1 15 -5 0 -6 5 -7 11 -3 8 4 7 9
-2 15 -19 12 -39 11 -39 -2z"/>
<path d="M6186 521 c-4 -5 -2 -12 3 -15 5 -4 12 -2 15 3 4 5 2 12 -3 15 -5 4
-12 2 -15 -3z"/>
<path d="M6227 524 c-11 -11 -8 -26 3 -19 6 3 10 1 10 -5 0 -6 5 -8 10 -5 6 3
10 11 10 16 0 6 -4 8 -9 5 -5 -4 -11 -1 -13 5 -2 5 -7 7 -11 3z"/>
<path d="M6405 519 c-10 -15 3 -25 16 -12 7 7 7 13 1 17 -6 3 -14 1 -17 -5z"/>
<path d="M6442 502 c-11 -25 -11 -25 4 -10 9 9 15 21 13 27 -2 6 -10 -2 -17
-17z"/>
<path d="M6275 499 c-4 -6 -5 -12 -2 -15 2 -3 7 2 10 11 7 17 1 20 -8 4z"/>
<path d="M6316 473 c-3 -8 -6 -15 -6 -16 0 -1 14 -2 30 -3 36 -1 38 7 6 22
-20 9 -26 9 -30 -3z"/>
<path d="M5972 440 c-8 -13 -8 -20 -2 -20 6 0 13 7 17 15 9 24 -1 27 -15 5z"/>
<path d="M6070 450 c8 -5 20 -10 25 -10 6 0 3 5 -5 10 -8 5 -19 10 -25 10 -5
0 -3 -5 5 -10z"/>
<path d="M6430 434 c0 -8 5 -12 10 -9 6 4 8 11 5 16 -9 14 -15 11 -15 -7z"/>
<path d="M6999 794 c18 -8 36 -13 39 -10 6 6 -43 26 -61 25 -7 0 3 -7 22 -15z"/>
<path d="M6930 735 c0 -2 10 -10 23 -16 20 -11 21 -11 8 4 -13 16 -31 23 -31
12z"/>
<path d="M7045 675 c28 -13 57 -24 65 -24 8 0 -12 11 -44 24 -75 31 -87 31
-21 0z"/>
<path d="M6945 660 c3 -5 14 -10 24 -10 10 0 24 -7 31 -15 7 -8 21 -15 31 -15
11 0 19 -4 19 -10 0 -5 9 -10 20 -10 12 0 33 -8 48 -17 l27 -17 -19 22 c-11
12 -29 22 -42 22 -13 0 -26 5 -29 10 -3 6 -15 10 -25 10 -10 0 -23 6 -27 13
-4 8 -21 17 -36 21 -19 4 -26 3 -22 -4z"/>
<path d="M7146 641 c13 -12 76 -32 82 -26 3 3 -11 12 -31 20 -40 17 -67 20
-51 6z"/>
<path d="M6931 591 c-14 -9 -7 -31 10 -31 6 0 29 -9 51 -20 23 -11 49 -20 58
-20 9 0 22 -6 29 -12 11 -11 13 -10 9 1 -2 8 -38 26 -79 40 -41 13 -68 26 -61
29 13 4 17 22 5 22 -5 0 -14 -4 -22 -9z"/>
<path d="M6535 3078 c-29 -30 -30 -36 -33 -135 -3 -91 -6 -101 -19 -88 -19 20
-25 19 -56 -8 -30 -25 -36 -64 -12 -73 12 -5 15 -28 15 -118 l0 -111 -300 3
c-185 2 -307 -1 -319 -7 -27 -15 -87 -277 -79 -345 4 -34 2 -36 -24 -36 l-28
0 0 150 c0 148 -2 156 -32 151 -11 -2 -10 19 7 100 13 63 13 74 1 88 -8 9 -16
30 -18 46 -2 22 -9 31 -25 33 -31 5 -56 -50 -79 -171 -10 -53 -21 -94 -26 -89
-4 4 -19 45 -32 90 -25 84 -52 131 -73 132 -22 0 -26 -67 -9 -135 20 -79 20
-95 1 -95 -13 0 -15 -23 -15 -149 l0 -150 -47 -3 -48 -3 2 -65 c2 -36 5 -71 8
-78 3 -10 247 -12 1192 -10 l1188 3 0 75 0 75 -118 3 -117 3 6 24 c3 14 1 38
-4 54 -10 29 -10 30 14 21 17 -7 34 -5 59 7 38 18 42 34 21 93 -12 32 -11 36
12 55 21 18 24 27 18 56 -5 27 -15 39 -51 58 l-44 23 6 58 c5 56 5 57 -30 84
l-36 28 -62 -35 -63 -35 -58 29 c-69 35 -100 36 -128 7 -16 -18 -20 -31 -15
-55 6 -32 5 -33 -25 -27 -22 5 -36 2 -50 -11 -24 -22 -25 -41 -5 -88 14 -35
14 -37 -11 -62 -40 -40 -31 -82 26 -115 l45 -27 -3 -52 c-3 -39 0 -57 14 -72
17 -19 16 -19 -54 -19 l-72 0 0 66 c0 57 -3 67 -20 71 -19 5 -20 14 -20 239 0
201 2 234 15 234 23 0 19 52 -5 73 -22 19 -60 23 -60 7 0 -5 -4 -10 -9 -10 -5
0 -9 46 -10 103 l-2 102 -35 34 -35 34 -34 -36 -35 -37 0 -100 0 -100 -30 0
c-16 0 -29 3 -29 8 1 4 1 48 0 99 -1 90 -2 92 -35 127 -18 20 -35 36 -37 36
-2 -1 -17 -15 -34 -32z m63 -24 c20 -14 22 -22 20 -102 -2 -84 -2 -84 -5 -19
-4 74 -13 84 -59 73 -25 -7 -26 -9 -22 -71 1 -36 0 -65 -4 -65 -5 0 -8 38 -8
84 0 76 2 86 22 100 12 9 25 16 28 16 3 0 16 -7 28 -16z m214 -8 c14 -20 8
-24 -42 -24 -55 0 -62 9 -28 32 23 16 57 12 70 -8z m-38 -74 c2 -4 -4 -8 -15
-8 -10 0 -19 4 -19 8 0 4 6 8 14 8 8 0 17 -4 20 -8z m26 -49 c0 -19 -3 -24
-10 -17 -6 6 -8 18 -4 27 9 24 14 21 14 -10z m-53 -49 c-3 -3 -12 -4 -19 -1
-8 3 -5 6 6 6 11 1 17 -2 13 -5z m70 0 c-3 -3 -12 -4 -19 -1 -8 3 -5 6 6 6 11
1 17 -2 13 -5z m-347 -219 c0 -70 -4 -115 -10 -115 -6 0 -10 45 -10 115 0 70
4 115 10 115 6 0 10 -45 10 -115z m50 94 c0 -16 5 -20 20 -16 11 3 22 2 25 -3
9 -15 55 2 55 21 0 16 8 19 50 19 44 0 50 -3 50 -21 0 -14 6 -19 18 -17 9 1
22 -1 29 -5 6 -4 14 -3 18 2 3 6 12 8 20 4 10 -3 15 2 15 16 0 14 6 21 20 21
19 0 20 -7 20 -235 0 -194 -2 -235 -14 -235 -20 0 -28 47 -32 185 -5 151 -8
161 -44 180 -17 9 -30 22 -30 29 0 8 -6 16 -14 19 -15 6 -36 -11 -36 -28 0 -7
-11 -17 -25 -23 -37 -17 -45 -49 -46 -175 0 -62 -3 -130 -7 -151 -7 -37 -8
-34 -26 55 -27 135 -33 149 -67 156 l-29 6 0 108 c0 90 3 109 15 109 9 0 15
-9 15 -21z m367 -331 c-1 -68 -3 -15 -3 117 0 132 2 187 3 123 2 -64 2 -172 0
-240z m431 199 c-60 -35 -104 -55 -109 -50 -6 6 31 34 93 70 66 39 105 57 110
50 4 -7 -33 -34 -94 -70z m-562 28 l34 -14 0 -130 0 -131 -25 0 c-16 0 -25 6
-25 15 0 8 6 15 14 15 18 0 25 39 18 116 l-5 64 -53 0 -54 0 0 -90 c0 -73 3
-90 15 -90 8 0 15 -7 15 -15 0 -9 -9 -15 -25 -15 l-25 0 0 116 c0 123 7 150
46 164 13 5 25 17 25 27 1 17 2 17 6 0 2 -9 20 -24 39 -32z m457 18 c29 -14
46 -28 40 -30 -7 -3 -37 9 -65 26 -65 38 -47 41 25 4z m-1603 -14 c0 -43 -25
-139 -37 -139 -16 0 -16 6 -1 86 7 41 16 64 25 64 7 0 13 -5 13 -11z m1514
-21 c8 -32 7 -40 -3 -34 -11 7 -21 56 -11 56 4 0 10 -10 14 -22z m292 5 c-6
-20 -36 -193 -36 -208 0 -5 -5 -4 -11 2 -7 7 -7 27 0 69 16 87 15 115 -6 108
-10 -3 -5 5 12 20 35 30 48 33 41 9z m-1779 -45 c-3 -8 -6 -5 -6 6 -1 11 2 17
5 13 3 -3 4 -12 1 -19z m1475 -14 c4 -3 5 -10 2 -17 -2 -7 22 -28 61 -51 103
-60 69 -54 -49 9 -106 57 -127 83 -57 70 20 -4 39 -9 43 -11z m-1485 -36 c-3
-8 -6 -5 -6 6 -1 11 2 17 5 13 3 -3 4 -12 1 -19z m1111 15 c-10 -2 -28 -2 -40
0 -13 2 -5 4 17 4 22 1 32 -1 23 -4z m452 -14 c0 -11 -4 -18 -10 -14 -5 3 -7
12 -3 20 7 21 13 19 13 -6z m315 -26 c29 -14 47 -33 30 -33 -12 0 -75 35 -75
42 0 11 4 10 45 -9z m-960 -43 c4 -7 -122 -10 -369 -10 -244 0 -376 4 -376 10
0 6 130 10 369 10 236 0 372 -4 376 -10z m745 -22 c-20 -51 -36 -78 -48 -83
-10 -4 -12 3 -7 28 9 42 32 77 50 77 11 0 12 -5 5 -22z m-740 -5 c0 -5 -153
-6 -341 -5 -323 4 -427 -1 -401 -17 8 -5 8 -20 -2 -56 l-13 -50 1 67 1 68 378
0 c207 0 377 -3 377 -7z m490 -3 c0 -9 -32 -30 -46 -30 -4 0 1 9 11 20 19 21
35 26 35 10z m-1392 -137 l-3 -138 -75 -3 c-41 -2 -94 0 -117 3 l-43 6 0 135
0 134 120 0 121 0 -3 -137z m1469 15 c-21 -118 -23 -126 -34 -115 -6 6 24 203
34 220 2 4 8 7 12 7 5 0 -1 -51 -12 -112z m275 72 c40 -22 76 -40 81 -40 4 0
7 14 7 30 0 17 3 30 8 30 10 0 45 -100 37 -108 -3 -4 -27 6 -53 21 -26 15 -75
42 -109 60 -57 28 -78 47 -54 47 6 0 43 -18 83 -40z m-948 14 c3 -9 6 -33 6
-54 0 -45 18 -63 55 -54 25 6 26 9 20 48 -4 22 -9 49 -11 59 -4 11 0 17 10 17
9 0 18 -10 21 -22 18 -80 25 -115 25 -130 0 -17 -25 -18 -393 -18 -217 0 -396
2 -399 5 -3 3 -3 17 0 30 4 21 7 23 24 14 11 -6 38 -9 59 -7 32 3 39 0 39 -14
0 -17 14 -18 169 -18 151 0 170 2 173 17 3 14 16 17 83 17 l80 1 3 63 c2 44 7
62 16 62 8 0 17 -7 20 -16z m286 -19 c0 -8 -4 -15 -10 -15 -5 0 -10 7 -10 15
0 8 5 15 10 15 6 0 10 -7 10 -15z m615 -75 c3 -5 1 -10 -4 -10 -6 0 -11 5 -11
10 0 6 2 10 4 10 3 0 8 -4 11 -10z m-65 -10 c-8 -5 -19 -10 -25 -10 -5 0 -3 5
5 10 8 5 20 10 25 10 6 0 3 -5 -5 -10z m-686 -62 l7 -38 -426 0 -425 0 1 33
c0 17 3 26 6 20 4 -10 96 -13 414 -13 l409 0 0 22 c0 30 6 20 14 -24z m136
-24 c0 -8 -4 -12 -10 -9 -5 3 -10 10 -10 16 0 5 5 9 10 9 6 0 10 -7 10 -16z
m133 3 c-5 -13 -16 -12 -21 2 -3 8 1 12 9 9 8 -3 13 -8 12 -11z m437 -32 l45
-24 -84 -1 c-87 0 -89 1 -44 31 35 22 30 22 83 -6z m-715 -13 c-6 -4 -194 -5
-420 -2 l-410 6 420 2 c230 1 415 -1 410 -6z m1065 -89 l0 -53 -1170 0 -1170
0 0 50 0 49 123 3 c67 2 593 3 1170 3 l1047 0 0 -52z"/>
<path d="M7472 1469 c-19 -30 -8 -34 12 -4 9 14 13 25 9 25 -5 0 -14 -9 -21
-21z"/>
<path d="M7576 1453 c-6 -14 -5 -15 5 -6 7 7 10 15 7 18 -3 3 -9 -2 -12 -12z"/>
<path d="M7502 1427 c-18 -18 -32 -37 -32 -42 0 -6 10 1 23 15 56 63 63 83 9
27z"/>
<path d="M7621 1419 c-28 -54 -21 -61 8 -8 13 22 21 42 18 45 -2 3 -14 -14
-26 -37z"/>
<path d="M7676 1433 c-6 -14 -5 -15 5 -6 7 7 10 15 7 18 -3 3 -9 -2 -12 -12z"/>
<path d="M7735 1401 c-8 -17 -12 -31 -7 -31 10 0 35 50 28 57 -2 3 -12 -9 -21
-26z"/>
<path d="M7543 1408 c-20 -26 -26 -41 -15 -34 12 7 36 46 29 46 -3 0 -9 -6
-14 -12z"/>
<path d="M7788 1313 c-54 -96 -62 -117 -35 -94 8 6 29 9 48 6 l34 -5 -32 12
-32 13 41 75 41 75 18 -40 c23 -52 23 -65 1 -65 -10 0 -26 -6 -36 -13 -16 -12
-15 -15 13 -56 16 -25 26 -51 23 -59 -3 -10 -1 -13 6 -8 17 11 15 23 -13 64
-30 44 -31 52 -7 52 10 0 27 6 37 14 19 13 19 15 0 55 -10 23 -16 43 -14 46 3
2 28 -2 57 -9 29 -8 52 -11 52 -7 0 4 -24 13 -52 20 -29 6 -62 14 -74 17 -18
5 -29 -9 -76 -93z"/>
<path d="M7637 1373 c-11 -13 -17 -26 -14 -29 2 -3 12 7 21 22 23 33 17 39 -7
7z"/>
<path d="M7700 1335 c0 -8 2 -15 4 -15 2 0 6 7 10 15 3 8 1 15 -4 15 -6 0 -10
-7 -10 -15z"/>
<path d="M7683 1298 c-15 -20 -25 -38 -20 -38 3 0 12 11 21 25 17 26 16 35 -1
13z"/>
<path d="M4620 945 c-113 -13 -211 -24 -217 -24 -9 -1 -13 -17 -13 -46 l0 -45
195 -130 c150 -99 203 -130 228 -130 36 0 436 47 480 56 25 5 27 9 27 54 l0
48 -222 118 c-122 65 -234 119 -248 120 -14 1 -117 -8 -230 -21z m237 -31 c-3
-3 -12 -4 -19 -1 -8 3 -5 6 6 6 11 1 17 -2 13 -5z m-77 -8 c0 -9 -50 -12 -62
-5 -8 6 1 9 25 9 20 0 37 -2 37 -4z m-105 -16 c-3 -5 -15 -10 -26 -10 -11 0
-17 5 -14 10 3 6 15 10 26 10 11 0 17 -4 14 -10z m-63 -30 l33 -20 -31 0 c-18
0 -38 8 -49 20 -16 18 -16 20 -2 20 9 0 31 -9 49 -20z m223 10 c4 -6 -7 -10
-27 -10 -25 0 -29 3 -18 10 19 13 37 13 45 0z m-95 -10 c11 -7 3 -10 -28 -10
-26 0 -41 4 -37 10 8 13 45 13 65 0z m160 -20 c11 -7 3 -10 -30 -9 -34 0 -40
2 -25 9 27 12 37 12 55 0z m-105 -10 c4 -6 -10 -10 -37 -9 -40 1 -41 2 -13 9
43 11 43 11 50 0z m-112 -17 c-7 -2 -21 -2 -30 0 -10 3 -4 5 12 5 17 0 24 -2
18 -5z m360 0 c-7 -2 -19 -2 -25 0 -7 3 -2 5 12 5 14 0 19 -2 13 -5z m-111
-16 c-24 -7 -36 -7 -44 1 -9 9 -1 12 33 11 l44 -1 -33 -11z m-77 -7 c4 -6 -8
-10 -29 -10 -19 0 -38 5 -41 10 -4 6 8 10 29 10 19 0 38 -4 41 -10z m291 -32
c25 -11 13 -14 -117 -30 -168 -20 -235 -22 -244 -8 -3 6 2 10 12 11 10 0 77 9
148 19 165 22 169 22 201 8z"/>
<path d="M5343 903 c-19 -7 -16 -41 6 -69 22 -28 259 -186 362 -242 82 -44
139 -60 139 -38 0 7 -14 32 -31 55 -21 30 -81 76 -206 158 -96 63 -187 119
-202 123 -14 4 -33 10 -41 13 -8 3 -21 3 -27 0z m32 -33 c-3 -5 -10 -10 -16
-10 -5 0 -9 5 -9 10 0 6 7 10 16 10 8 0 12 -4 9 -10z m430 -277 c16 -24 16
-26 0 -20 -9 4 -21 7 -26 7 -5 0 -9 9 -9 20 0 28 14 25 35 -7z"/>
<path d="M2401 599 c-140 -146 -154 -164 -158 -202 -8 -72 -3 -73 217 -91 259
-21 323 -21 342 2 9 9 61 85 117 169 90 136 101 157 101 197 0 25 -6 48 -12
53 -14 8 -293 31 -393 32 l-61 1 -153 -161z m208 76 c-17 -17 -31 -24 -43 -19
-16 6 -16 8 0 25 9 11 29 19 43 19 l26 0 -26 -25z m121 15 c0 -5 -16 -10 -35
-10 -19 0 -35 5 -35 10 0 6 16 10 35 10 19 0 35 -4 35 -10z m76 0 c9 0 12 -4
9 -10 -7 -12 -65 -14 -65 -2 0 15 13 23 28 17 7 -3 20 -5 28 -5z m102 -12 c-3
-7 -8 -12 -11 -10 -4 1 -19 2 -33 2 -14 0 -23 4 -19 10 9 15 68 13 63 -2z
m-213 -28 c-3 -5 -19 -10 -36 -10 -16 0 -29 5 -29 10 0 6 16 10 36 10 21 0 33
-4 29 -10z m88 -11 c-8 -8 -19 -8 -40 -1 -28 10 -28 10 12 11 28 1 36 -2 28
-10z m97 1 c11 -7 3 -10 -28 -10 -26 0 -41 4 -37 10 8 13 45 13 65 0z m-323
-26 c-3 -3 -12 -4 -19 -1 -8 3 -5 6 6 6 11 1 17 -2 13 -5z m103 -4 c0 -13 -40
-13 -60 0 -11 7 -5 10 23 10 20 0 37 -4 37 -10z m95 -10 c-8 -13 -35 -13 -55
0 -11 7 -5 10 23 10 23 0 36 -4 32 -10z m90 0 c4 -6 -8 -10 -30 -10 -22 0 -34
4 -30 10 3 6 17 10 30 10 13 0 27 -4 30 -10z m-332 -27 c-7 -2 -21 -2 -30 0
-10 3 -4 5 12 5 17 0 24 -2 18 -5z m107 -3 c0 -5 -11 -10 -24 -10 -14 0 -28 5
-31 10 -4 6 7 10 24 10 17 0 31 -4 31 -10z m88 -7 c-10 -2 -26 -2 -35 0 -10 3
-2 5 17 5 19 0 27 -2 18 -5z m105 -10 c-7 -2 -19 -2 -25 0 -7 3 -2 5 12 5 14
0 19 -2 13 -5z m-229 -54 c78 -6 152 -13 165 -15 l24 -5 -20 -20 c-20 -20 -25
-20 -179 -9 -87 6 -170 14 -183 16 -22 5 -23 6 -6 24 21 23 18 23 199 9z"/>
<path d="M7655 548 c-81 -93 -108 -137 -40 -63 75 81 127 145 118 145 -4 0
-39 -37 -78 -82z"/>
<path d="M7726 500 c-42 -50 -73 -90 -68 -90 7 0 50 46 131 143 13 15 22 30
19 32 -2 3 -39 -36 -82 -85z"/>
<path d="M7826 454 c-43 -52 -76 -97 -74 -100 3 -2 34 31 69 73 97 118 101
123 92 123 -4 0 -43 -43 -87 -96z"/>
<path d="M7664 492 c-42 -50 -58 -72 -51 -72 3 0 28 27 57 60 29 33 48 60 43
60 -4 0 -26 -21 -49 -48z"/>
<path d="M7909 483 c-54 -59 -111 -134 -107 -139 4 -4 67 70 131 154 18 23 1
12 -24 -15z"/>
<path d="M7906 418 c-36 -46 -66 -87 -66 -92 0 -12 2 -10 72 79 58 75 72 95
64 95 -2 0 -34 -37 -70 -82z"/>
<path d="M3216 458 c-12 -55 -47 -411 -42 -424 5 -12 122 -14 816 -12 446 1
816 5 822 9 8 5 5 60 -11 206 -12 109 -24 208 -27 221 l-4 22 -775 0 -775 0
-4 -22z m1534 -20 c0 -7 9 -85 20 -173 11 -88 20 -172 20 -188 l0 -27 -795 0
-795 0 0 23 c0 12 9 96 20 187 11 91 20 171 20 178 0 9 158 12 755 12 597 0
755 -3 755 -12z"/>
<path d="M3274 422 c-11 -7 -46 -320 -38 -334 3 -4 347 -8 765 -8 l759 0 -1
33 c0 17 -8 95 -17 172 l-17 140 -720 2 c-396 2 -725 -1 -731 -5z m1431 -54
c12 -74 31 -258 27 -263 -3 -3 -335 -5 -739 -5 l-733 0 0 28 c0 28 17 183 26
240 l5 32 704 0 704 0 6 -32z"/>
<path d="M3370 250 c0 -56 3 -70 15 -70 9 0 15 9 15 24 0 21 6 25 33 28 17 2
32 8 32 13 0 6 -15 11 -32 13 -25 2 -33 8 -33 23 0 15 7 19 35 19 19 0 35 5
35 10 0 6 -22 10 -50 10 l-50 0 0 -70z"/>
<path d="M3500 250 c0 -40 4 -70 10 -70 6 0 10 9 10 20 0 13 7 20 20 20 11 0
25 -9 32 -20 7 -11 18 -20 25 -20 16 0 17 12 1 28 -9 9 -9 15 0 24 7 7 12 24
12 38 0 37 -18 50 -67 50 l-43 0 0 -70z m77 39 c18 -18 3 -39 -28 -39 -24 0
-29 4 -29 25 0 19 5 25 23 25 13 0 28 -5 34 -11z"/>
<path d="M3655 255 c-16 -36 -25 -69 -21 -73 4 -4 12 1 17 11 13 22 77 24 85
2 5 -13 34 -22 34 -11 0 20 -62 136 -73 136 -9 0 -27 -28 -42 -65z m58 5 c3
-13 0 -23 -9 -27 -21 -8 -27 2 -20 32 7 29 21 26 29 -5z"/>
<path d="M3790 249 c0 -52 3 -70 13 -66 7 2 11 19 10 41 -1 20 2 36 6 36 5 0
24 -18 41 -40 17 -22 36 -40 41 -40 5 0 9 32 9 70 0 40 -4 70 -10 70 -5 0 -10
-21 -10 -47 l0 -48 -41 48 c-22 26 -45 47 -50 47 -5 0 -9 -32 -9 -71z"/>
<path d="M3961 301 c-27 -27 -27 -75 -1 -101 29 -29 100 -25 100 6 0 17 -5 17
-30 2 -27 -17 -54 0 -58 36 -5 41 15 59 56 51 26 -5 33 -3 30 7 -8 23 -74 22
-97 -1z"/>
<path d="M4090 250 l0 -70 49 0 c28 0 53 5 56 10 4 6 -10 10 -34 10 -34 0 -41
3 -41 20 0 16 7 20 30 20 17 0 30 5 30 10 0 6 -13 10 -30 10 -23 0 -30 4 -30
20 0 16 7 20 35 20 19 0 35 5 35 10 0 6 -22 10 -50 10 l-50 0 0 -70z"/>
<path d="M4221 298 c-12 -32 -3 -48 30 -55 37 -7 58 -30 35 -39 -9 -3 -27 -3
-40 0 -14 3 -27 2 -31 -4 -7 -11 34 -23 65 -18 57 8 50 65 -9 81 -40 10 -35
32 7 32 19 0 32 5 32 12 0 8 -15 13 -40 13 -33 0 -42 -4 -49 -22z"/>
<path d="M4361 301 c-27 -27 -27 -75 -1 -101 29 -29 100 -25 100 6 0 16 -16
19 -25 4 -11 -18 -44 -10 -61 15 -15 23 -15 27 1 51 14 22 22 25 52 21 24 -4
33 -2 30 6 -7 22 -74 20 -96 -2z"/>
<path d="M4500 298 c-27 -29 -25 -69 3 -96 65 -62 162 21 107 91 -28 35 -80
37 -110 5z m92 -23 c16 -35 -3 -75 -35 -75 -30 0 -47 18 -47 50 0 52 61 71 82
25z"/>
<path d="M7726 434 c-15 -20 -26 -37 -23 -40 2 -2 17 12 32 31 35 47 28 55 -9
9z"/>
<path d="M5480 442 c-46 -22 -45 -21 -32 -34 9 -9 12 -9 12 0 0 7 8 12 18 12
10 0 22 3 26 8 4 4 12 7 17 7 13 0 16 18 4 21 -5 1 -26 -5 -45 -14z"/>
<path d="M5600 419 c0 -5 5 -7 10 -4 6 3 10 8 10 11 0 2 -4 4 -10 4 -5 0 -10
-5 -10 -11z"/>
<path d="M7925 375 c-26 -31 -45 -58 -43 -61 3 -2 22 17 43 43 54 67 58 73 52
73 -2 0 -26 -25 -52 -55z"/>
<path d="M5567 413 c-12 -12 -7 -22 8 -17 8 4 15 10 15 15 0 11 -14 12 -23 2z"/>
<path d="M5393 395 c0 -8 4 -12 9 -9 5 3 6 10 3 15 -9 13 -12 11 -12 -6z"/>
<path d="M5524 384 c-18 -14 -18 -15 4 -4 12 6 22 13 22 15 0 8 -5 6 -26 -11z"/>
<path d="M5323 376 c-13 -6 -23 -14 -23 -19 0 -4 -4 -5 -10 -2 -5 3 -10 2 -10
-4 0 -5 5 -13 10 -16 6 -3 10 -2 10 4 0 9 33 24 54 26 5 0 11 6 14 13 4 14
-14 14 -45 -2z"/>
<path d="M5478 372 c-10 -2 -18 -8 -18 -13 0 -11 11 -11 30 1 18 11 11 18 -12
12z"/>
<path d="M5590 360 c0 -5 -3 -9 -7 -8 -16 3 -104 -42 -99 -51 6 -10 86 26 86
39 0 5 9 6 20 3 14 -4 20 0 20 11 0 9 -4 16 -10 16 -5 0 -10 -4 -10 -10z"/>
<path d="M6805 334 c-173 -26 -226 -36 -222 -41 7 -6 309 38 327 48 20 11 10
11 -105 -7z"/>
<path d="M7452 334 c-34 -24 -54 -68 -43 -97 28 -74 143 -77 185 -6 21 36 14
82 -17 104 -28 20 -97 19 -125 -1z m103 -6 c33 -15 32 -24 -7 -37 -36 -13 -33
-14 -42 22 -7 31 6 35 49 15z m35 -48 c0 -5 -5 -10 -11 -10 -5 0 -7 5 -4 10 3
6 8 10 11 10 2 0 4 -4 4 -10z m-91 -76 c10 -9 -35 -3 -49 6 -11 8 -7 9 15 4
17 -4 32 -8 34 -10z m38 0 c-3 -3 -12 -4 -19 -1 -8 3 -5 6 6 6 11 1 17 -2 13
-5z"/>
<path d="M5680 333 c0 -5 -19 -17 -42 -27 -108 -47 -120 -53 -109 -61 7 -4 21
1 31 10 11 10 26 15 35 12 8 -4 15 -2 15 3 0 12 76 51 84 43 3 -4 6 -1 6 5 0
6 -4 14 -10 17 -5 3 -10 2 -10 -2z"/>
<path d="M5770 305 c-7 -8 -20 -15 -29 -16 -9 0 -11 -3 -5 -5 15 -6 68 22 56
30 -5 3 -15 -1 -22 -9z"/>
<path d="M5440 290 c0 -5 7 -7 15 -4 8 4 15 8 15 10 0 2 -7 4 -15 4 -8 0 -15
-4 -15 -10z"/>
<path d="M7970 285 c-7 -9 -11 -18 -8 -20 3 -3 11 1 18 10 7 9 11 18 8 20 -3
3 -11 -1 -18 -10z"/>
<path d="M5700 276 c0 -9 5 -16 10 -16 6 0 10 4 10 9 0 6 -4 13 -10 16 -5 3
-10 -1 -10 -9z"/>
<path d="M6890 275 c-41 -7 -114 -18 -162 -25 -49 -7 -88 -15 -88 -19 0 -9
336 41 346 52 9 9 -1 8 -96 -8z"/>
<path d="M7694 218 c-64 -78 -83 -105 -66 -94 17 11 135 157 130 161 -2 3 -31
-28 -64 -67z"/>
<path d="M7635 218 c-60 -73 -78 -102 -47 -75 29 26 115 137 105 136 -4 0 -30
-28 -58 -61z"/>
<path d="M7735 198 c-68 -84 -85 -112 -34 -58 53 58 93 109 88 115 -3 2 -27
-24 -54 -57z"/>
<path d="M5727 212 c-51 -27 -64 -38 -51 -42 10 -4 26 2 42 17 14 13 31 23 38
23 8 0 14 5 14 10 0 6 12 10 26 10 14 0 23 4 19 10 -9 14 -12 13 -88 -28z"/>
<path d="M6510 243 c-38 -7 -42 -16 -25 -57 12 -27 20 -36 33 -32 9 3 34 8 55
12 20 3 37 8 37 10 0 3 -7 20 -14 39 -15 36 -24 39 -86 28z"/>
<path d="M6808 226 c-75 -11 -140 -25 -145 -30 -4 -5 3 -6 17 -3 14 3 84 13
155 23 72 9 137 21 145 25 23 13 -16 9 -172 -15z"/>
<path d="M5496 225 c4 -8 8 -15 10 -15 2 0 4 7 4 15 0 8 -4 15 -10 15 -5 0 -7
-7 -4 -15z"/>
<path d="M5445 220 c-4 -6 -9 -8 -13 -6 -10 6 -47 -22 -40 -29 10 -10 80 24
73 35 -8 13 -12 13 -20 0z"/>
<path d="M7763 157 c-52 -65 -67 -87 -60 -87 9 0 120 141 115 145 -2 3 -27
-23 -55 -58z"/>
<path d="M7884 173 c-72 -87 -106 -133 -97 -133 7 1 120 138 137 168 15 25 -2
11 -40 -35z"/>
<path d="M5817 189 c4 -13 8 -18 11 -10 2 7 -1 18 -6 23 -8 8 -9 4 -5 -13z"/>
<path d="M5955 190 c3 -5 8 -10 11 -10 2 0 4 5 4 10 0 6 -5 10 -11 10 -5 0 -7
-4 -4 -10z"/>
<path d="M6822 175 c-126 -20 -186 -35 -141 -35 19 0 321 49 334 54 25 10 -62
2 -193 -19z"/>
<path d="M7909 133 c-54 -70 -65 -88 -51 -79 18 11 105 127 99 132 -2 2 -24
-21 -48 -53z"/>
<path d="M5350 169 c0 -5 -6 -7 -12 -3 -9 5 -8 2 1 -10 11 -13 16 -14 22 -4
12 18 11 28 -1 28 -5 0 -10 -5 -10 -11z"/>
<path d="M5893 167 c-22 -9 -32 -27 -15 -27 11 1 46 29 41 34 -2 2 -14 -1 -26
-7z"/>
<path d="M6935 155 c-38 -7 -110 -19 -160 -26 -49 -7 -82 -15 -71 -17 22 -5
305 38 326 49 21 12 -6 10 -95 -6z"/>
<path d="M5615 150 c-4 -6 -11 -8 -16 -5 -5 4 -9 1 -9 -4 0 -15 13 -14 36 4
10 8 14 15 7 15 -6 0 -15 -5 -18 -10z"/>
<path d="M7950 103 c-19 -25 -39 -53 -44 -62 -17 -29 30 18 60 60 38 55 26 56
-16 2z"/>
<path d="M5970 130 c0 -6 -4 -9 -9 -6 -5 3 -14 -1 -21 -9 -7 -8 -15 -13 -19
-10 -10 6 -93 -50 -85 -58 3 -3 15 3 27 13 11 11 24 17 29 14 4 -3 11 2 14 10
3 9 9 14 13 12 3 -2 21 4 40 13 21 11 30 21 22 25 -6 4 -11 2 -11 -4z"/>
<path d="M6540 131 c-28 -8 -28 -26 -3 -74 9 -19 20 -26 31 -23 9 2 32 7 50
11 36 7 38 12 18 60 -16 37 -37 43 -96 26z m80 -27 c15 -38 13 -41 -22 -47
-23 -4 -37 0 -45 11 -22 27 -16 50 15 55 15 2 30 5 35 6 4 0 12 -11 17 -25z"/>
<path d="M5537 115 c-12 -8 -14 -15 -8 -20 6 -3 11 -2 11 4 0 5 8 11 18 13 9
2 12 6 7 10 -6 3 -18 0 -28 -7z"/>
<path d="M5783 109 c-31 -16 -40 -25 -35 -37 6 -16 7 -16 10 0 2 9 13 19 25
22 24 6 68 35 52 35 -5 0 -29 -9 -52 -20z"/>
<path d="M6076 105 c4 -8 8 -15 10 -15 2 0 4 7 4 15 0 8 -4 15 -10 15 -5 0 -7
-7 -4 -15z"/>
<path d="M6945 115 c-5 -2 -64 -11 -130 -21 -66 -10 -112 -20 -103 -22 18 -3
289 36 297 44 5 5 -49 4 -64 -1z"/>
<path d="M5490 91 c0 -6 4 -13 10 -16 6 -3 7 1 4 9 -7 18 -14 21 -14 7z"/>
<path d="M6030 89 c0 -5 -4 -8 -8 -5 -4 2 -19 -4 -32 -15 -31 -23 -12 -25 29
-1 31 17 40 32 21 32 -5 0 -10 -5 -10 -11z"/>
<path d="M5670 49 c-22 -12 -28 -19 -17 -19 10 0 25 7 34 15 8 8 19 13 24 10
5 -4 9 -1 9 4 0 15 -9 13 -50 -10z"/>
<path d="M6903 41 c-95 -15 -176 -31 -180 -36 -5 -4 6 -5 22 -2 17 3 100 15
185 27 85 12 162 26 170 31 23 13 -2 10 -197 -20z"/>
<path d="M7962 37 c-25 -27 -30 -46 -6 -27 15 13 38 50 31 50 -2 0 -13 -10
-25 -23z"/>
<path d="M5806 37 c3 -10 9 -15 12 -12 3 3 0 11 -7 18 -10 9 -11 8 -5 -6z"/>
<path d="M5945 41 c-3 -5 -1 -12 5 -16 5 -3 10 1 10 9 0 18 -6 21 -15 7z"/>
<path d="M6590 10 c-18 -6 -10 -8 32 -7 31 1 54 5 52 9 -6 10 -51 9 -84 -2z"/>
<path d="M7035 10 l-40 -7 40 -1 c22 0 51 4 65 8 l25 8 -25 0 c-14 -1 -43 -4
-65 -8z"/>
</g>
</svg>
